<?xml version="1.0" encoding="utf-8"?>
<!-- Generator: Adobe Illustrator 30.0.0, SVG Export Plug-In . SVG Version: 9.03 Build 0)  -->
<svg version="1.0" id="Layer_1" xmlns="http://www.w3.org/2000/svg" xmlns:xlink="http://www.w3.org/1999/xlink" x="0px" y="0px"
	 viewBox="0 0 1200 1200" style="enable-background:new 0 0 1200 1200;" xml:space="preserve">
<path d="M910.84,634.23c-0.02-3.43,0.14-6.85,0.46-10.26c0.32-3.41,0.82-6.8,1.47-10.16c0.66-3.36,1.48-6.69,2.47-9.97
	c0.99-3.29,2.14-6.51,3.44-9.68c1.31-3.17,2.77-6.27,4.38-9.29c1.61-3.02,3.38-5.96,5.28-8.81c1.91-2.85,3.95-5.6,6.12-8.24
	c2.18-2.65,4.48-5.18,6.91-7.6c1.61-1.61,3.18-3.27,4.71-4.96c1.53-1.69,3.02-3.42,4.46-5.18c1.44-1.77,2.84-3.56,4.2-5.4
	c1.35-1.83,2.67-3.69,3.93-5.59c1.27-1.9,2.48-3.82,3.66-5.78c1.17-1.96,2.29-3.94,3.36-5.95c1.07-2.01,2.09-4.05,3.07-6.11
	c0.97-2.06,1.9-4.15,2.77-6.25c0.87-2.11,1.69-4.23,2.46-6.38c0.77-2.15,1.48-4.31,2.14-6.49c0.66-2.18,1.27-4.38,1.82-6.59
	c0.55-2.21,1.05-4.44,1.49-6.67c0.44-2.23,0.83-4.48,1.17-6.73s0.61-4.52,0.83-6.79c0.22-2.27,0.39-4.54,0.51-6.82
	c0.11-2.28,0.17-4.56,0.17-6.83c0-2.28-0.06-4.56-0.17-6.84c-0.11-2.28-0.28-4.55-0.51-6.82c-0.22-2.27-0.5-4.53-0.83-6.79
	c-0.33-2.26-0.72-4.5-1.17-6.73c-0.44-2.23-0.94-4.46-1.49-6.67c-0.56-2.21-1.16-4.41-1.82-6.59s-1.38-4.35-2.14-6.49
	c-0.77-2.15-1.59-4.27-2.46-6.38c-0.87-2.1-1.79-4.19-2.77-6.25c-0.97-2.06-1.99-4.1-3.07-6.11c-1.07-2.01-2.2-3.99-3.36-5.95
	c-1.17-1.95-2.39-3.88-3.66-5.78c-1.26-1.9-2.57-3.76-3.93-5.59c-1.36-1.83-2.76-3.63-4.2-5.4c-1.44-1.77-2.93-3.49-4.46-5.18
	c-1.53-1.69-3.1-3.34-4.71-4.96c-2.44-2.41-4.74-4.94-6.93-7.58c-2.18-2.64-4.23-5.39-6.14-8.23c-1.91-2.85-3.67-5.79-5.29-8.81
	c-1.61-3.03-3.08-6.12-4.39-9.29c-1.31-3.17-2.45-6.4-3.44-9.68c-0.98-3.28-1.8-6.61-2.46-9.97c-0.65-3.36-1.14-6.76-1.45-10.17
	c-0.31-3.41-0.46-6.83-0.43-10.27c-0.01-2.28-0.08-4.55-0.2-6.83c-0.12-2.27-0.3-4.54-0.54-6.81s-0.53-4.52-0.87-6.78
	c-0.34-2.25-0.74-4.49-1.2-6.72c-0.45-2.23-0.96-4.45-1.53-6.66c-0.56-2.2-1.18-4.4-1.85-6.57c-0.67-2.18-1.39-4.33-2.17-6.47
	c-0.78-2.14-1.6-4.27-2.48-6.36c-0.88-2.1-1.81-4.18-2.79-6.23c-0.98-2.06-2.02-4.09-3.1-6.09c-1.08-2.01-2.21-3.98-3.39-5.93
	c-1.18-1.95-2.4-3.86-3.68-5.76c-1.27-1.89-2.59-3.74-3.95-5.57c-1.36-1.83-2.77-3.61-4.22-5.37c-1.45-1.76-2.95-3.47-4.48-5.16
	c-1.53-1.68-3.11-3.33-4.72-4.93s-3.27-3.17-4.96-4.69c-1.69-1.53-3.42-3.01-5.18-4.45c-1.77-1.44-3.57-2.83-5.4-4.18
	c-1.83-1.35-3.7-2.66-5.59-3.92c-1.9-1.26-3.82-2.47-5.78-3.64c-1.96-1.17-3.94-2.28-5.95-3.35c-2.01-1.07-4.05-2.09-6.1-3.06
	c-2.06-0.97-4.15-1.89-6.26-2.75c-2.1-0.87-4.23-1.68-6.38-2.45c-2.15-0.76-4.31-1.47-6.49-2.12c-2.18-0.66-4.38-1.26-6.59-1.81
	c-2.21-0.55-4.43-1.04-6.67-1.48c-2.23-0.44-4.48-0.83-6.73-1.16c-2.25-0.33-4.51-0.61-6.78-0.83c-2.27-0.22-4.54-0.38-6.81-0.49
	c-2.28-0.11-4.55-0.16-6.83-0.16c-3.43,0.03-6.85-0.11-10.27-0.43c-3.42-0.31-6.81-0.8-10.17-1.45c-3.36-0.65-6.69-1.47-9.97-2.46
	c-3.29-0.98-6.51-2.13-9.68-3.44c-3.17-1.31-6.27-2.77-9.29-4.39c-3.02-1.62-5.96-3.38-8.81-5.29c-2.84-1.91-5.59-3.95-8.23-6.14
	c-2.65-2.18-5.17-4.49-7.58-6.93c-1.61-1.61-3.27-3.18-4.96-4.71c-1.69-1.53-3.42-3.02-5.18-4.46c-1.77-1.44-3.56-2.84-5.4-4.2
	c-1.83-1.35-3.7-2.67-5.59-3.93c-1.9-1.27-3.82-2.48-5.78-3.65c-1.96-1.17-3.94-2.29-5.95-3.36s-4.05-2.1-6.11-3.07
	c-2.06-0.97-4.15-1.89-6.25-2.77c-2.11-0.87-4.23-1.69-6.38-2.45c-2.15-0.77-4.31-1.48-6.49-2.15c-2.18-0.66-4.38-1.27-6.59-1.82
	c-2.21-0.55-4.44-1.05-6.67-1.49s-4.48-0.83-6.73-1.17c-2.26-0.33-4.52-0.61-6.79-0.84c-2.27-0.22-4.54-0.39-6.82-0.5
	c-2.28-0.11-4.56-0.17-6.84-0.17c-2.28,0-4.56,0.05-6.83,0.17c-2.28,0.11-4.55,0.28-6.82,0.5c-2.27,0.22-4.53,0.51-6.79,0.84
	c-2.26,0.33-4.5,0.72-6.73,1.17s-4.46,0.94-6.67,1.49c-2.21,0.55-4.41,1.16-6.59,1.82c-2.18,0.66-4.35,1.38-6.49,2.15
	c-2.15,0.77-4.27,1.58-6.38,2.45c-2.1,0.88-4.19,1.8-6.25,2.77c-2.06,0.97-4.1,2-6.11,3.07c-2.01,1.07-3.99,2.19-5.95,3.36
	c-1.95,1.17-3.88,2.39-5.78,3.65c-1.9,1.27-3.77,2.58-5.59,3.93c-1.83,1.35-3.63,2.76-5.4,4.2c-1.77,1.45-3.49,2.93-5.18,4.46
	c-1.69,1.53-3.34,3.1-4.96,4.71c-2.42,2.43-4.95,4.73-7.59,6.92c-2.64,2.18-5.39,4.22-8.24,6.13c-2.85,1.91-5.79,3.67-8.81,5.29
	c-3.03,1.61-6.12,3.07-9.29,4.38c-3.17,1.31-6.4,2.45-9.68,3.44c-3.28,0.98-6.6,1.81-9.97,2.46c-3.36,0.66-6.76,1.14-10.17,1.46
	c-3.41,0.32-6.83,0.46-10.26,0.44c-2.28,0.01-4.56,0.06-6.83,0.18c-2.28,0.11-4.55,0.29-6.82,0.51c-2.27,0.23-4.53,0.51-6.78,0.85
	c-2.26,0.33-4.5,0.72-6.73,1.17s-4.46,0.95-6.67,1.51c-2.21,0.56-4.41,1.17-6.59,1.83c-2.18,0.67-4.34,1.38-6.49,2.15
	c-2.15,0.77-4.27,1.59-6.38,2.46c-2.1,0.88-4.19,1.8-6.25,2.78c-2.06,0.97-4.09,2-6.1,3.08c-2.01,1.07-3.99,2.2-5.95,3.37
	c-1.95,1.17-3.88,2.39-5.77,3.66c-1.9,1.27-3.76,2.58-5.59,3.94c-1.83,1.35-3.62,2.76-5.39,4.2c-1.76,1.45-3.48,2.94-5.17,4.47
	c-1.69,1.53-3.34,3.1-4.95,4.71c-1.61,1.61-3.18,3.26-4.71,4.95c-1.53,1.69-3.02,3.42-4.46,5.18c-1.45,1.76-2.85,3.56-4.21,5.39
	c-1.36,1.83-2.67,3.69-3.94,5.59c-1.27,1.89-2.49,3.82-3.66,5.77s-2.3,3.94-3.37,5.95c-1.08,2.01-2.1,4.04-3.08,6.1
	c-0.97,2.06-1.9,4.14-2.78,6.24c-0.87,2.11-1.69,4.23-2.46,6.38c-0.77,2.15-1.48,4.31-2.15,6.49c-0.67,2.18-1.28,4.38-1.83,6.58
	c-0.55,2.21-1.06,4.43-1.5,6.67c-0.45,2.23-0.84,4.48-1.18,6.73c-0.34,2.25-0.62,4.52-0.84,6.78c-0.23,2.27-0.4,4.54-0.51,6.82
	c-0.11,2.28-0.18,4.55-0.18,6.83c0.02,3.43-0.14,6.85-0.46,10.26c-0.32,3.41-0.81,6.8-1.47,10.16c-0.66,3.36-1.48,6.69-2.47,9.97
	c-0.99,3.28-2.14,6.51-3.44,9.68c-1.31,3.17-2.77,6.27-4.38,9.29c-1.61,3.03-3.38,5.96-5.28,8.81c-1.91,2.85-3.95,5.59-6.12,8.24
	c-2.18,2.65-4.48,5.18-6.91,7.6c-1.6,1.61-3.16,3.27-4.68,4.96c-1.52,1.69-2.99,3.42-4.43,5.18c-1.43,1.77-2.82,3.56-4.17,5.4
	c-1.34,1.83-2.65,3.7-3.9,5.59c-1.26,1.9-2.46,3.82-3.62,5.78c-1.16,1.95-2.27,3.94-3.33,5.95c-1.06,2.01-2.07,4.04-3.04,6.1
	c-0.96,2.06-1.88,4.14-2.73,6.24c-0.86,2.1-1.67,4.23-2.43,6.38c-0.76,2.14-1.46,4.3-2.11,6.48c-0.65,2.18-1.25,4.38-1.79,6.58
	c-0.54,2.21-1.03,4.43-1.46,6.66c-0.44,2.23-0.81,4.47-1.14,6.72c-0.32,2.25-0.59,4.51-0.81,6.77c-0.21,2.26-0.37,4.53-0.47,6.8
	c-0.1,2.27-0.15,4.54-0.14,6.81c0.01,2.28,0.07,4.55,0.19,6.82c0.12,2.27,0.3,4.53,0.53,6.8c0.23,2.26,0.52,4.52,0.86,6.76
	c0.34,2.25,0.73,4.48,1.19,6.71s0.96,4.44,1.52,6.65c0.56,2.2,1.17,4.39,1.84,6.56c0.67,2.18,1.39,4.33,2.16,6.47
	c0.77,2.14,1.59,4.26,2.47,6.35c0.88,2.09,1.8,4.17,2.78,6.22c0.98,2.05,2.01,4.08,3.08,6.08s2.2,3.97,3.38,5.92
	c1.18,1.95,2.4,3.86,3.66,5.75c1.27,1.89,2.58,3.74,3.94,5.56s2.76,3.61,4.21,5.36c1.45,1.76,2.93,3.47,4.46,5.15
	s3.1,3.32,4.71,4.93c2.42,2.42,4.71,4.96,6.89,7.61c2.17,2.65,4.2,5.4,6.1,8.25c1.9,2.85,3.66,5.79,5.27,8.81
	c1.61,3.03,3.07,6.12,4.38,9.29s2.45,6.39,3.44,9.67c0.99,3.28,1.82,6.6,2.48,9.96c0.67,3.36,1.16,6.74,1.49,10.16
	c0.33,3.41,0.49,6.83,0.49,10.26c-0.01,4.03,0.16,8.05,0.51,12.06c0.34,4.01,0.86,8,1.55,11.97c0.69,3.97,1.55,7.9,2.58,11.79
	c1.03,3.89,2.22,7.73,3.59,11.52c1.36,3.79,2.89,7.51,4.57,11.17c1.69,3.66,3.53,7.23,5.53,10.73c1.99,3.5,4.14,6.91,6.43,10.21
	c2.29,3.31,4.72,6.52,7.29,9.62c2.57,3.1,5.27,6.08,8.1,8.95c2.82,2.87,5.77,5.61,8.84,8.22c3.06,2.61,6.23,5.08,9.52,7.42
	c3.28,2.33,6.66,4.53,10.12,6.57c3.47,2.04,7.02,3.93,10.66,5.67c3.63,1.74,7.33,3.31,11.1,4.73c3.77,1.41,7.59,2.66,11.47,3.74
	c3.88,1.08,7.79,1.99,11.75,2.74l-140.43,338.79c-0.24,0.65-0.45,1.32-0.61,1.99c-0.17,0.68-0.29,1.37-0.37,2.06
	c-0.08,0.69-0.12,1.39-0.12,2.08c0,0.7,0.05,1.4,0.13,2.09c0.08,0.69,0.21,1.38,0.38,2.06c0.17,0.68,0.37,1.34,0.61,1.99
	c0.24,0.66,0.53,1.29,0.85,1.91c0.32,0.62,0.68,1.22,1.07,1.8s0.82,1.13,1.28,1.66c0.46,0.53,0.95,1.02,1.46,1.49
	s1.06,0.91,1.63,1.31c0.57,0.4,1.16,0.77,1.77,1.1c0.61,0.33,1.24,0.63,1.9,0.89c0.65,0.26,1.31,0.48,1.98,0.66
	c0.68,0.18,1.36,0.32,2.05,0.42c0.69,0.1,1.39,0.16,2.08,0.17h3.33l318.98-61.98l318.99,61.98h3.33c2.61-0.08,5.09-0.68,7.44-1.81
	c2.35-1.12,4.38-2.68,6.07-4.67c1.09-1.25,1.97-2.64,2.66-4.14c0.68-1.51,1.14-3.08,1.37-4.73c0.23-1.64,0.22-3.28-0.02-4.92
	c-0.24-1.64-0.71-3.21-1.41-4.71L796.68,771.33c3.97-0.73,7.9-1.64,11.79-2.71c3.89-1.07,7.72-2.31,11.51-3.72
	c3.78-1.41,7.49-2.97,11.14-4.7c3.65-1.73,7.21-3.61,10.69-5.65c3.48-2.04,6.87-4.22,10.16-6.56c3.29-2.33,6.48-4.8,9.56-7.41
	s6.04-5.35,8.88-8.21c2.84-2.86,5.55-5.85,8.14-8.95c2.58-3.1,5.02-6.31,7.33-9.62c2.3-3.31,4.46-6.72,6.47-10.22
	c2.01-3.5,3.86-7.08,5.56-10.74c1.7-3.66,3.23-7.39,4.6-11.18c1.38-3.8,2.58-7.64,3.62-11.54c1.04-3.9,1.91-7.83,2.61-11.81
	c0.7-3.97,1.22-7.97,1.57-11.99C910.66,642.29,910.84,638.27,910.84,634.23z M771.15,738.95c-4.57-0.02-9.12,0.2-13.67,0.63
	c-4.55,0.44-9.06,1.09-13.54,1.98c-4.48,0.88-8.91,1.98-13.28,3.3c-4.38,1.32-8.67,2.85-12.89,4.59c-4.22,1.74-8.34,3.69-12.38,5.84
	c-4.03,2.15-7.94,4.49-11.74,7.03c-3.8,2.54-7.46,5.25-10.99,8.15c-3.53,2.9-6.91,5.96-10.14,9.2c-1.21,1.21-2.45,2.4-3.72,3.55
	c-1.27,1.15-2.56,2.27-3.89,3.36c-1.32,1.09-2.67,2.15-4.05,3.17c-1.38,1.02-2.78,2.01-4.2,2.96s-2.87,1.87-4.34,2.75
	c-1.47,0.89-2.96,1.73-4.47,2.54c-1.51,0.81-3.04,1.58-4.59,2.32c-1.55,0.73-3.11,1.43-4.7,2.08c-1.58,0.66-3.18,1.28-4.79,1.85
	c-1.61,0.58-3.24,1.11-4.88,1.61c-1.64,0.49-3.29,0.95-4.95,1.37c-1.66,0.42-3.33,0.79-5.02,1.13c-1.68,0.33-3.36,0.62-5.06,0.88
	c-1.69,0.25-3.4,0.46-5.1,0.63c-1.7,0.17-3.41,0.29-5.12,0.38c-1.71,0.09-3.42,0.13-5.14,0.13c-1.71,0-3.43-0.04-5.14-0.13
	c-1.71-0.08-3.42-0.21-5.12-0.38c-1.7-0.17-3.41-0.38-5.1-0.63c-1.69-0.26-3.38-0.55-5.06-0.88c-1.68-0.34-3.35-0.71-5.02-1.13
	c-1.66-0.42-3.31-0.88-4.95-1.37c-1.64-0.5-3.27-1.04-4.88-1.61c-1.61-0.58-3.21-1.2-4.8-1.85s-3.15-1.35-4.7-2.08
	c-1.55-0.73-3.07-1.51-4.59-2.32c-1.51-0.81-3-1.65-4.47-2.54c-1.47-0.88-2.91-1.8-4.34-2.75c-1.42-0.95-2.82-1.94-4.2-2.96
	c-1.38-1.02-2.72-2.08-4.05-3.17c-1.32-1.09-2.62-2.21-3.89-3.36c-1.27-1.15-2.51-2.34-3.71-3.55c-3.22-3.23-6.59-6.3-10.11-9.2
	c-3.52-2.9-7.17-5.61-10.96-8.15c-3.79-2.54-7.69-4.88-11.71-7.03c-4.02-2.15-8.14-4.09-12.35-5.84c-4.21-1.74-8.51-3.27-12.87-4.59
	c-4.36-1.32-8.78-2.42-13.26-3.3c-4.48-0.88-8.98-1.54-13.52-1.97c-4.54-0.44-9.09-0.65-13.65-0.63c-1.7-0.02-3.41-0.07-5.11-0.17
	c-1.7-0.09-3.4-0.23-5.09-0.42c-1.69-0.18-3.38-0.41-5.07-0.67c-1.68-0.27-3.36-0.57-5.03-0.91c-1.67-0.35-3.33-0.73-4.98-1.16
	c-1.65-0.43-3.29-0.89-4.92-1.4c-1.63-0.51-3.24-1.06-4.84-1.64c-1.6-0.58-3.19-1.21-4.76-1.87c-1.57-0.66-3.12-1.36-4.66-2.1
	c-1.54-0.74-3.05-1.51-4.55-2.32c-1.5-0.81-2.98-1.66-4.43-2.55c-1.46-0.89-2.89-1.81-4.31-2.76c-1.41-0.95-2.8-1.94-4.16-2.96
	c-1.36-1.03-2.7-2.08-4.01-3.17c-1.31-1.09-2.6-2.21-3.85-3.36c-1.26-1.15-2.49-2.33-3.69-3.54c-1.2-1.21-2.37-2.45-3.51-3.71
	c-1.14-1.27-2.24-2.56-3.32-3.89c-1.07-1.32-2.12-2.67-3.13-4.04c-1.01-1.38-1.98-2.77-2.93-4.19c-0.94-1.42-1.85-2.86-2.72-4.33
	c-0.88-1.46-1.71-2.95-2.51-4.45c-0.8-1.51-1.56-3.03-2.28-4.57c-0.73-1.54-1.41-3.1-2.06-4.68c-0.65-1.58-1.26-3.17-1.83-4.78
	c-0.57-1.6-1.1-3.22-1.59-4.85c-0.49-1.63-0.95-3.28-1.36-4.93c-0.41-1.66-0.78-3.32-1.11-4.99c-0.33-1.67-0.62-3.35-0.86-5.04
	c-0.25-1.69-0.46-3.38-0.62-5.07c-0.17-1.7-0.29-3.4-0.38-5.1c-0.08-1.7-0.12-3.41-0.12-5.11c0.02-4.56-0.2-9.11-0.63-13.65
	c-0.43-4.54-1.09-9.05-1.97-13.52c-0.88-4.47-1.98-8.89-3.3-13.26c-1.32-4.36-2.85-8.66-4.59-12.87c-1.74-4.21-3.69-8.33-5.84-12.35
	c-2.15-4.02-4.49-7.93-7.03-11.71c-2.54-3.79-5.26-7.44-8.16-10.96c-2.9-3.52-5.96-6.89-9.19-10.11c-1.21-1.21-2.4-2.45-3.55-3.71
	c-1.15-1.27-2.28-2.57-3.36-3.89c-1.09-1.32-2.15-2.67-3.17-4.05c-1.03-1.38-2.01-2.78-2.96-4.2c-0.95-1.43-1.87-2.87-2.76-4.34
	c-0.88-1.47-1.73-2.96-2.54-4.47c-0.81-1.51-1.58-3.04-2.31-4.59c-0.73-1.55-1.43-3.11-2.09-4.69c-0.66-1.58-1.27-3.18-1.85-4.8
	c-0.58-1.61-1.12-3.24-1.61-4.88c-0.5-1.64-0.96-3.29-1.38-4.95s-0.79-3.33-1.12-5.02c-0.34-1.68-0.63-3.37-0.88-5.06
	c-0.26-1.69-0.46-3.4-0.63-5.1c-0.17-1.71-0.3-3.42-0.38-5.12c-0.08-1.71-0.12-3.43-0.12-5.14c0-1.71,0.04-3.43,0.12-5.14
	c0.08-1.71,0.21-3.42,0.38-5.12c0.17-1.71,0.38-3.41,0.63-5.1c0.25-1.7,0.54-3.39,0.88-5.06c0.33-1.68,0.71-3.35,1.12-5.02
	c0.42-1.66,0.88-3.31,1.38-4.95c0.49-1.64,1.04-3.27,1.61-4.88c0.58-1.61,1.19-3.21,1.85-4.79c0.66-1.58,1.35-3.15,2.09-4.7
	s1.51-3.08,2.31-4.59c0.81-1.51,1.66-3,2.54-4.47c0.89-1.47,1.8-2.92,2.76-4.34c0.95-1.43,1.94-2.82,2.96-4.2
	c1.02-1.38,2.08-2.72,3.17-4.05c1.08-1.32,2.21-2.61,3.36-3.89c1.15-1.27,2.33-2.51,3.55-3.72c3.23-3.22,6.3-6.6,9.2-10.12
	c2.9-3.53,5.62-7.19,8.16-10.99c2.54-3.8,4.88-7.71,7.03-11.74c2.15-4.03,4.1-8.15,5.84-12.38c1.74-4.22,3.27-8.52,4.59-12.89
	c1.32-4.38,2.42-8.8,3.29-13.29c0.88-4.48,1.54-8.99,1.97-13.54c0.43-4.55,0.64-9.1,0.62-13.67c0-1.71,0.05-3.42,0.13-5.12
	c0.09-1.71,0.22-3.41,0.39-5.11c0.17-1.7,0.39-3.4,0.64-5.08c0.25-1.69,0.55-3.38,0.88-5.05c0.34-1.68,0.71-3.34,1.13-5
	c0.42-1.66,0.88-3.3,1.38-4.94c0.5-1.64,1.04-3.26,1.61-4.86s1.2-3.2,1.85-4.78s1.35-3.14,2.08-4.68c0.73-1.54,1.5-3.07,2.31-4.57
	c0.81-1.51,1.65-2.99,2.53-4.46c0.88-1.46,1.8-2.91,2.75-4.33c0.95-1.42,1.93-2.81,2.95-4.19c1.02-1.37,2.07-2.72,3.16-4.04
	c1.09-1.32,2.2-2.61,3.35-3.88c1.15-1.27,2.33-2.51,3.54-3.71c1.21-1.2,2.45-2.38,3.71-3.53c1.27-1.15,2.56-2.26,3.89-3.34
	c1.32-1.08,2.67-2.13,4.04-3.15c1.38-1.02,2.77-1.99,4.19-2.95c1.42-0.95,2.86-1.86,4.33-2.74c1.46-0.88,2.95-1.72,4.46-2.52
	c1.51-0.81,3.04-1.57,4.58-2.3c1.54-0.73,3.1-1.42,4.68-2.07c1.58-0.66,3.18-1.27,4.79-1.84c1.61-0.58,3.23-1.11,4.86-1.61
	c1.64-0.49,3.28-0.95,4.94-1.36c1.66-0.41,3.32-0.79,5-1.12c1.68-0.33,3.36-0.62,5.05-0.88c1.69-0.25,3.39-0.46,5.09-0.62
	c1.7-0.17,3.41-0.3,5.11-0.38c1.7-0.08,3.41-0.12,5.12-0.12c4.56,0.02,9.11-0.19,13.65-0.62c4.54-0.44,9.05-1.09,13.52-1.97
	c4.47-0.88,8.89-1.98,13.26-3.3c4.36-1.32,8.66-2.85,12.87-4.59c4.21-1.74,8.33-3.69,12.35-5.84c4.02-2.15,7.93-4.49,11.71-7.03
	c3.79-2.54,7.44-5.25,10.96-8.15c3.52-2.9,6.89-5.96,10.11-9.19c1.21-1.21,2.45-2.4,3.71-3.55c1.27-1.15,2.57-2.27,3.89-3.36
	c1.32-1.09,2.67-2.15,4.05-3.17c1.38-1.02,2.78-2.01,4.2-2.96c1.43-0.95,2.87-1.87,4.34-2.75c1.47-0.89,2.96-1.73,4.47-2.54
	c1.51-0.81,3.04-1.58,4.59-2.32c1.55-0.73,3.11-1.43,4.69-2.08c1.58-0.66,3.18-1.28,4.8-1.85c1.61-0.58,3.24-1.11,4.88-1.61
	c1.64-0.49,3.29-0.95,4.95-1.37c1.66-0.42,3.33-0.79,5.02-1.13c1.68-0.33,3.37-0.62,5.06-0.88c1.7-0.25,3.4-0.46,5.1-0.63
	c1.71-0.17,3.42-0.29,5.12-0.38c1.71-0.08,3.43-0.13,5.14-0.13c1.71,0,3.43,0.05,5.14,0.13c1.71,0.08,3.42,0.21,5.12,0.38
	c1.71,0.17,3.41,0.38,5.1,0.63c1.7,0.26,3.39,0.55,5.07,0.88c1.68,0.34,3.35,0.71,5.01,1.13c1.66,0.42,3.31,0.88,4.95,1.37
	c1.64,0.5,3.27,1.04,4.88,1.61c1.61,0.58,3.21,1.2,4.79,1.85c1.58,0.66,3.15,1.35,4.7,2.08c1.55,0.73,3.08,1.51,4.59,2.32
	c1.51,0.81,3,1.65,4.47,2.54c1.47,0.88,2.92,1.8,4.34,2.75c1.43,0.95,2.82,1.94,4.2,2.96c1.38,1.02,2.72,2.08,4.05,3.17
	c1.32,1.09,2.61,2.21,3.89,3.36c1.27,1.16,2.51,2.34,3.72,3.55c3.19,3.23,6.54,6.3,10.03,9.21c3.49,2.91,7.12,5.63,10.89,8.18
	c3.76,2.55,7.64,4.91,11.64,7.07s8.09,4.14,12.28,5.9s8.45,3.32,12.8,4.67c4.34,1.35,8.74,2.48,13.19,3.39
	c4.45,0.92,8.94,1.61,13.46,2.08c4.52,0.47,9.05,0.72,13.6,0.76c1.7,0,3.41,0.05,5.11,0.13c1.71,0.09,3.41,0.22,5.1,0.39
	c1.7,0.17,3.4,0.39,5.08,0.64c1.69,0.26,3.37,0.55,5.04,0.89c1.67,0.33,3.34,0.71,4.99,1.12c1.66,0.42,3.3,0.88,4.93,1.37
	c1.63,0.5,3.25,1.04,4.86,1.61c1.6,0.57,3.2,1.19,4.78,1.84c1.57,0.66,3.14,1.35,4.68,2.08c1.54,0.73,3.07,1.5,4.57,2.31
	c1.51,0.81,2.99,1.65,4.45,2.53c1.46,0.88,2.9,1.79,4.32,2.74c1.42,0.95,2.81,1.93,4.18,2.95c1.37,1.02,2.72,2.07,4.04,3.15
	c1.32,1.08,2.61,2.2,3.88,3.34c1.27,1.15,2.5,2.32,3.71,3.53c1.21,1.2,2.39,2.44,3.53,3.7c1.15,1.27,2.26,2.56,3.34,3.88
	c1.08,1.32,2.14,2.66,3.15,4.03c1.02,1.38,2,2.77,2.95,4.19c0.95,1.42,1.86,2.86,2.74,4.32c0.88,1.46,1.72,2.95,2.53,4.45
	c0.8,1.51,1.57,3.03,2.3,4.57c0.73,1.54,1.42,3.1,2.08,4.68s1.27,3.17,1.85,4.78c0.58,1.6,1.11,3.22,1.61,4.86
	c0.5,1.63,0.95,3.28,1.37,4.93c0.42,1.66,0.8,3.32,1.13,4.99c0.33,1.68,0.63,3.36,0.88,5.05c0.26,1.69,0.47,3.38,0.64,5.08
	c0.17,1.7,0.3,3.4,0.39,5.1c0.09,1.71,0.13,3.41,0.14,5.12c-0.02,4.57,0.19,9.12,0.62,13.67s1.08,9.06,1.96,13.54
	c0.88,4.48,1.98,8.91,3.3,13.28c1.31,4.38,2.84,8.67,4.59,12.9c1.74,4.22,3.69,8.34,5.84,12.38s4.49,7.94,7.04,11.74
	c2.54,3.8,5.26,7.46,8.16,10.98c2.9,3.53,5.97,6.91,9.2,10.13c1.22,1.21,2.41,2.44,3.57,3.71c1.16,1.27,2.28,2.56,3.38,3.88
	c1.09,1.32,2.16,2.67,3.18,4.04c1.03,1.38,2.02,2.77,2.98,4.2c0.95,1.42,1.88,2.86,2.77,4.33s1.73,2.96,2.55,4.47
	s1.59,3.04,2.33,4.59c0.73,1.55,1.44,3.11,2.09,4.7c0.66,1.58,1.28,3.18,1.86,4.79c0.58,1.61,1.12,3.24,1.62,4.89
	c0.5,1.64,0.96,3.29,1.38,4.95c0.42,1.66,0.8,3.34,1.13,5.02c0.34,1.68,0.63,3.38,0.89,5.07c0.26,1.7,0.46,3.4,0.64,5.11
	c0.17,1.7,0.3,3.42,0.38,5.13c0.08,1.71,0.12,3.43,0.12,5.14c0,1.71-0.04,3.43-0.12,5.14c-0.08,1.71-0.21,3.42-0.38,5.13
	c-0.17,1.71-0.38,3.41-0.64,5.1c-0.26,1.7-0.55,3.39-0.89,5.07c-0.33,1.68-0.71,3.35-1.13,5.02c-0.42,1.66-0.88,3.31-1.38,4.95
	c-0.51,1.64-1.04,3.27-1.62,4.88c-0.58,1.61-1.2,3.21-1.86,4.8c-0.66,1.58-1.36,3.15-2.09,4.7c-0.74,1.55-1.52,3.08-2.33,4.59
	c-0.81,1.51-1.66,3-2.55,4.47s-1.81,2.91-2.77,4.33c-0.96,1.42-1.95,2.82-2.98,4.2c-1.03,1.37-2.09,2.72-3.18,4.04
	c-1.09,1.32-2.22,2.61-3.38,3.88c-1.16,1.27-2.35,2.5-3.57,3.71c-3.2,3.21-6.23,6.57-9.1,10.07c-2.87,3.51-5.56,7.15-8.07,10.92
	c-2.51,3.77-4.83,7.66-6.96,11.65c-2.13,4-4.06,8.09-5.78,12.28c-1.73,4.19-3.24,8.45-4.55,12.79c-1.31,4.34-2.4,8.73-3.27,13.17
	c-0.88,4.45-1.53,8.93-1.97,13.43c-0.43,4.51-0.65,9.03-0.64,13.56c0,1.71-0.04,3.43-0.12,5.14c-0.08,1.71-0.21,3.42-0.38,5.13
	c-0.17,1.7-0.38,3.41-0.63,5.1c-0.25,1.7-0.54,3.39-0.88,5.06c-0.34,1.68-0.71,3.35-1.13,5.02c-0.42,1.67-0.87,3.32-1.37,4.96
	c-0.49,1.64-1.04,3.27-1.61,4.88c-0.57,1.61-1.19,3.21-1.85,4.79c-0.66,1.58-1.35,3.15-2.08,4.7c-0.73,1.55-1.5,3.08-2.31,4.59
	c-0.81,1.51-1.66,3.01-2.54,4.47c-0.88,1.47-1.8,2.92-2.75,4.34c-0.95,1.42-1.94,2.82-2.96,4.2c-1.02,1.38-2.08,2.72-3.16,4.05
	c-1.09,1.32-2.21,2.62-3.36,3.89c-1.15,1.27-2.33,2.51-3.54,3.72c-1.21,1.21-2.45,2.39-3.72,3.54c-1.27,1.15-2.57,2.27-3.89,3.36
	c-1.33,1.09-2.68,2.14-4.06,3.16c-1.38,1.02-2.78,2.01-4.2,2.96c-1.43,0.95-2.88,1.87-4.34,2.75c-1.47,0.88-2.96,1.73-4.47,2.54
	s-3.04,1.58-4.59,2.31c-1.55,0.73-3.12,1.43-4.7,2.08c-1.58,0.66-3.18,1.28-4.79,1.85c-1.61,0.57-3.24,1.11-4.89,1.61
	c-1.64,0.5-3.29,0.95-4.95,1.37c-1.66,0.42-3.33,0.79-5.02,1.13c-1.68,0.33-3.37,0.62-5.06,0.88c-1.7,0.26-3.4,0.46-5.1,0.63
	c-1.7,0.17-3.41,0.3-5.12,0.38C774.57,738.91,772.86,738.95,771.15,738.95z M581.68,946.92v92.52l-131.74,25.9l50.51-139.14
	c0.4-1.07,0.69-2.16,0.86-3.29c0.18-1.13,0.24-2.26,0.2-3.4c-0.05-1.14-0.2-2.26-0.47-3.37c-0.27-1.1-0.64-2.18-1.12-3.21
	c-0.48-1.03-1.06-2.01-1.73-2.93c-0.68-0.92-1.44-1.76-2.28-2.53s-1.76-1.44-2.73-2.03c-0.98-0.58-2.01-1.07-3.08-1.45
	c-1.91-0.72-3.88-1.1-5.92-1.11c-1.78,0.06-3.51,0.38-5.2,0.94c-1.69,0.56-3.27,1.35-4.72,2.37c-1.46,1.02-2.75,2.22-3.86,3.61
	c-1.11,1.39-2.01,2.91-2.68,4.55l-57.73,158.75l-104.54,20.35l132.66-318.98c5.86,0.63,11.64,1.75,17.31,3.36
	c5.68,1.6,11.17,3.68,16.5,6.21c5.32,2.54,10.4,5.5,15.22,8.9c4.82,3.39,9.33,7.17,13.52,11.32c1.61,1.62,3.26,3.19,4.95,4.72
	c1.69,1.54,3.41,3.03,5.18,4.48c1.76,1.45,3.56,2.85,5.39,4.21c1.83,1.36,3.69,2.68,5.59,3.95c1.9,1.27,3.82,2.49,5.78,3.67
	c1.96,1.17,3.94,2.3,5.95,3.38s4.05,2.1,6.11,3.08c2.06,0.97,4.15,1.9,6.25,2.78c2.11,0.88,4.23,1.7,6.38,2.47
	c2.15,0.77,4.31,1.48,6.49,2.15c2.18,0.67,4.38,1.28,6.59,1.83c2.21,0.56,4.44,1.06,6.68,1.51c2.23,0.44,4.48,0.83,6.74,1.17
	c2.26,0.33,4.52,0.61,6.79,0.84c2.27,0.22,4.54,0.39,6.82,0.51c2.28,0.11,4.56,0.17,6.84,0.17s4.56-0.06,6.84-0.17
	c2.28-0.11,4.55-0.28,6.82-0.51c2.27-0.22,4.54-0.51,6.79-0.84c2.26-0.34,4.51-0.73,6.74-1.17c2.24-0.45,4.46-0.95,6.68-1.51
	c2.21-0.55,4.41-1.16,6.59-1.83c2.18-0.66,4.34-1.38,6.49-2.15c2.15-0.77,4.27-1.59,6.38-2.47c2.1-0.88,4.19-1.8,6.25-2.78
	c2.06-0.98,4.1-2.01,6.11-3.08c2.01-1.08,3.99-2.2,5.95-3.38c1.95-1.18,3.88-2.4,5.78-3.67c1.9-1.27,3.76-2.58,5.59-3.95
	c1.83-1.36,3.62-2.77,5.39-4.21c1.77-1.45,3.49-2.94,5.18-4.48c1.69-1.53,3.34-3.1,4.95-4.72c4.18-4.14,8.67-7.91,13.47-11.3
	c4.81-3.39,9.87-6.35,15.18-8.89c5.31-2.54,10.79-4.61,16.45-6.22c5.66-1.61,11.41-2.74,17.26-3.38l132.85,318.98l-104.72-20.35
	l-57.73-158.75c-0.3-0.83-0.66-1.64-1.09-2.42c-0.42-0.78-0.91-1.52-1.44-2.22c-0.54-0.7-1.12-1.36-1.76-1.98
	c-0.64-0.61-1.32-1.17-2.05-1.68c-0.72-0.51-1.48-0.96-2.27-1.36c-0.79-0.39-1.61-0.72-2.46-0.99c-0.84-0.27-1.7-0.47-2.57-0.61
	c-0.88-0.14-1.76-0.21-2.64-0.21c-2.1,0.03-4.14,0.4-6.1,1.11c-1.08,0.39-2.1,0.87-3.08,1.45c-0.98,0.59-1.89,1.27-2.73,2.03
	s-1.6,1.61-2.28,2.53c-0.68,0.92-1.26,1.9-1.74,2.93c-0.48,1.03-0.85,2.1-1.12,3.21c-0.27,1.11-0.43,2.23-0.47,3.37
	c-0.05,1.14,0.02,2.27,0.2,3.4c0.18,1.12,0.47,2.22,0.86,3.29l50.52,139.14l-131.56-25.72v-92.51c0.06-0.61,0.09-1.22,0.09-1.84
	c0-0.61-0.04-1.22-0.1-1.83c-0.07-0.61-0.16-1.21-0.29-1.81c-0.13-0.6-0.29-1.19-0.48-1.78c-0.19-0.58-0.41-1.16-0.66-1.71
	c-0.25-0.56-0.53-1.1-0.83-1.64c-0.31-0.53-0.65-1.05-1.01-1.54c-0.36-0.49-0.74-0.97-1.16-1.43c-0.41-0.45-0.84-0.89-1.3-1.3
	c-0.46-0.41-0.93-0.8-1.43-1.16c-0.5-0.36-1.01-0.69-1.54-1c-0.53-0.31-1.08-0.58-1.64-0.83s-1.13-0.47-1.71-0.66
	s-1.18-0.35-1.78-0.47c-0.6-0.13-1.21-0.22-1.82-0.29c-0.61-0.07-1.22-0.1-1.83-0.1c-0.61,0-1.22,0.03-1.83,0.1
	c-0.61,0.06-1.22,0.16-1.82,0.29c-0.6,0.12-1.19,0.29-1.78,0.47c-0.58,0.19-1.16,0.41-1.71,0.66c-0.56,0.25-1.11,0.53-1.64,0.83
	c-0.53,0.31-1.04,0.64-1.54,1c-0.49,0.36-0.97,0.74-1.43,1.16c-0.46,0.41-0.89,0.84-1.3,1.3c-0.41,0.46-0.8,0.93-1.16,1.43
	c-0.36,0.49-0.7,1.01-1.01,1.54s-0.58,1.07-0.83,1.64c-0.25,0.56-0.47,1.13-0.66,1.71c-0.19,0.58-0.35,1.18-0.48,1.78
	c-0.13,0.6-0.22,1.2-0.29,1.81c-0.06,0.61-0.1,1.22-0.1,1.83c0,0.61,0.03,1.23,0.09,1.84V946.92z"/>
<path d="M711.94,350.58c-2.73-1.65-5.7-2.45-8.89-2.41c-1.51-0.01-2.99,0.19-4.46,0.57c-1.46,0.39-2.85,0.95-4.16,1.69
	c-1.31,0.75-2.51,1.65-3.59,2.71c-1.08,1.06-2.01,2.24-2.78,3.54L570.57,553.93L487.68,449.2c-0.82-1.02-1.75-1.94-2.78-2.75
	s-2.14-1.5-3.32-2.06c-1.19-0.56-2.42-0.98-3.7-1.27s-2.58-0.42-3.89-0.41c-1.95-0.02-3.84,0.29-5.69,0.92
	c-1.84,0.64-3.52,1.56-5.04,2.78c-0.91,0.71-1.73,1.51-2.48,2.38c-0.75,0.88-1.41,1.82-1.96,2.82c-0.56,1.01-1.02,2.06-1.37,3.16
	c-0.35,1.1-0.59,2.22-0.72,3.36c-0.13,1.14-0.14,2.29-0.05,3.44c0.1,1.15,0.31,2.28,0.64,3.38c0.32,1.1,0.75,2.17,1.28,3.19
	c0.54,1.02,1.17,1.98,1.89,2.88l98.43,124.15c1.72,2.01,3.77,3.57,6.16,4.7c2.39,1.13,4.9,1.72,7.54,1.77h1.11
	c1.42-0.09,2.8-0.35,4.16-0.78c1.35-0.43,2.63-1.01,3.84-1.76c1.21-0.74,2.31-1.62,3.31-2.63c0.99-1.01,1.85-2.12,2.58-3.35
	l130.44-217.96c0.57-1.02,1.04-2.08,1.41-3.19c0.37-1.11,0.64-2.24,0.79-3.4c0.16-1.16,0.2-2.32,0.14-3.48
	c-0.07-1.17-0.24-2.32-0.52-3.45c-0.28-1.14-0.67-2.23-1.15-3.29c-0.49-1.06-1.07-2.06-1.76-3.02c-0.68-0.95-1.44-1.83-2.29-2.63
	C713.83,351.93,712.92,351.21,711.94,350.58z"/>
<path d="M599.07,208.67c-4.15,0-8.29,0.1-12.44,0.3c-4.14,0.21-8.28,0.51-12.41,0.92c-4.13,0.41-8.24,0.92-12.35,1.53
	c-4.1,0.61-8.19,1.32-12.26,2.12c-4.07,0.81-8.11,1.72-12.14,2.72c-4.02,1.01-8.02,2.11-11.99,3.32c-3.97,1.2-7.91,2.51-11.81,3.9
	c-3.91,1.4-7.78,2.89-11.61,4.48c-3.83,1.58-7.62,3.27-11.38,5.04c-3.75,1.77-7.45,3.64-11.11,5.59c-3.66,1.95-7.27,4-10.83,6.13
	c-3.56,2.14-7.06,4.35-10.51,6.66c-3.45,2.31-6.84,4.69-10.17,7.17c-3.33,2.47-6.6,5.02-9.81,7.65c-3.21,2.64-6.35,5.34-9.42,8.13
	c-3.07,2.79-6.08,5.65-9.01,8.58c-2.94,2.93-5.8,5.94-8.58,9.01c-2.79,3.07-5.49,6.21-8.13,9.42c-2.63,3.2-5.18,6.47-7.65,9.81
	c-2.47,3.33-4.86,6.72-7.17,10.17c-2.3,3.45-4.52,6.95-6.66,10.51c-2.13,3.56-4.18,7.17-6.13,10.83c-1.96,3.66-3.82,7.36-5.59,11.11
	c-1.78,3.75-3.46,7.54-5.05,11.38c-1.58,3.83-3.08,7.7-4.47,11.61c-1.4,3.91-2.7,7.84-3.91,11.81c-1.2,3.97-2.31,7.97-3.32,11.99
	c-1.01,4.02-1.92,8.07-2.72,12.14c-0.81,4.07-1.52,8.16-2.12,12.26c-0.61,4.1-1.12,8.22-1.53,12.35c-0.41,4.13-0.71,8.27-0.92,12.41
	c-0.2,4.15-0.3,8.29-0.3,12.44c0,4.15,0.1,8.3,0.3,12.44c0.2,4.15,0.51,8.28,0.92,12.41c0.41,4.12,0.92,8.24,1.53,12.35
	c0.6,4.1,1.32,8.19,2.12,12.26c0.81,4.07,1.72,8.11,2.72,12.14c1.01,4.03,2.11,8.02,3.32,11.99c1.21,3.97,2.51,7.91,3.91,11.82
	c1.4,3.91,2.89,7.77,4.47,11.6c1.59,3.83,3.27,7.62,5.05,11.38c1.77,3.75,3.64,7.46,5.59,11.11c1.95,3.66,4,7.27,6.13,10.82
	c2.14,3.56,4.35,7.06,6.66,10.52c2.31,3.45,4.69,6.84,7.17,10.17c2.47,3.33,5.02,6.6,7.65,9.81c2.64,3.21,5.34,6.35,8.13,9.42
	c2.78,3.07,5.64,6.08,8.58,9.01c2.93,2.93,5.94,5.79,9.01,8.58c3.07,2.79,6.21,5.49,9.42,8.12c3.2,2.64,6.47,5.19,9.81,7.66
	c3.33,2.47,6.72,4.86,10.17,7.17c3.45,2.3,6.95,4.52,10.51,6.66c3.56,2.13,7.17,4.18,10.83,6.13c3.66,1.95,7.36,3.82,11.11,5.59
	c3.75,1.78,7.54,3.45,11.38,5.04c3.83,1.59,7.7,3.08,11.61,4.48c3.91,1.4,7.84,2.7,11.81,3.9s7.97,2.31,11.99,3.32
	c4.02,1.01,8.07,1.92,12.14,2.73c4.07,0.81,8.16,1.52,12.26,2.12c4.1,0.61,8.22,1.11,12.35,1.52c4.12,0.41,8.27,0.71,12.41,0.92
	c4.15,0.2,8.29,0.31,12.44,0.31c4.15,0,8.3-0.1,12.44-0.31c4.15-0.2,8.28-0.51,12.41-0.92c4.12-0.41,8.24-0.91,12.35-1.52
	c4.1-0.61,8.19-1.32,12.26-2.12c4.07-0.81,8.11-1.72,12.14-2.73c4.03-1.01,8.02-2.11,11.99-3.32s7.91-2.51,11.81-3.9
	c3.91-1.4,7.78-2.89,11.61-4.48c3.83-1.59,7.62-3.27,11.38-5.04c3.75-1.78,7.45-3.64,11.11-5.59c3.66-1.95,7.27-4,10.82-6.13
	c3.56-2.14,7.06-4.35,10.52-6.66c3.45-2.31,6.84-4.69,10.17-7.17c3.33-2.47,6.6-5.02,9.81-7.66c3.21-2.63,6.34-5.34,9.42-8.12
	c3.07-2.79,6.08-5.65,9.01-8.58c2.93-2.93,5.79-5.94,8.58-9.01c2.79-3.07,5.49-6.21,8.12-9.42c2.64-3.21,5.18-6.48,7.66-9.81
	c2.47-3.33,4.86-6.72,7.16-10.17c2.31-3.45,4.53-6.95,6.66-10.52c2.14-3.56,4.18-7.17,6.14-10.82c1.95-3.66,3.82-7.36,5.59-11.11
	c1.77-3.75,3.45-7.54,5.04-11.38c1.59-3.83,3.08-7.7,4.48-11.6c1.4-3.91,2.7-7.84,3.9-11.82c1.2-3.97,2.31-7.96,3.32-11.99
	c1.01-4.03,1.92-8.07,2.73-12.14c0.81-4.07,1.52-8.15,2.12-12.26s1.11-8.22,1.52-12.35c0.41-4.13,0.71-8.27,0.92-12.41
	c0.2-4.14,0.31-8.29,0.31-12.44c-0.01-4.15-0.11-8.29-0.32-12.43c-0.21-4.14-0.52-8.28-0.93-12.4c-0.41-4.12-0.93-8.24-1.54-12.34
	c-0.61-4.1-1.33-8.19-2.14-12.26c-0.81-4.06-1.73-8.11-2.74-12.13c-1.01-4.02-2.12-8.02-3.33-11.98c-1.21-3.96-2.51-7.9-3.91-11.8
	c-1.4-3.91-2.9-7.77-4.48-11.6c-1.59-3.83-3.27-7.61-5.05-11.36c-1.78-3.75-3.64-7.45-5.6-11.1c-1.96-3.66-4-7.27-6.14-10.82
	c-2.14-3.56-4.35-7.06-6.66-10.51c-2.31-3.45-4.69-6.84-7.17-10.17c-2.47-3.33-5.02-6.6-7.65-9.8c-2.64-3.21-5.34-6.34-8.12-9.42
	c-2.79-3.07-5.65-6.07-8.58-9.01c-2.93-2.93-5.93-5.79-9.01-8.58s-6.21-5.49-9.42-8.12c-3.21-2.63-6.47-5.18-9.8-7.65
	c-3.33-2.47-6.72-4.86-10.17-7.17c-3.45-2.31-6.95-4.53-10.51-6.66c-3.56-2.14-7.16-4.18-10.82-6.14c-3.66-1.96-7.36-3.82-11.1-5.6
	c-3.75-1.78-7.54-3.46-11.37-5.05c-3.83-1.59-7.7-3.09-11.6-4.49c-3.9-1.4-7.84-2.7-11.81-3.91c-3.96-1.2-7.96-2.31-11.98-3.33
	c-4.03-1.01-8.07-1.92-12.14-2.73c-4.06-0.81-8.15-1.53-12.25-2.14c-4.1-0.61-8.21-1.12-12.34-1.54c-4.12-0.41-8.26-0.72-12.4-0.93
	C607.36,208.78,603.21,208.67,599.07,208.67z M599.07,680.67c-3.57,0-7.15-0.09-10.72-0.27c-3.57-0.18-7.14-0.44-10.7-0.79
	c-3.56-0.35-7.11-0.79-10.65-1.32c-3.54-0.52-7.06-1.14-10.57-1.83c-3.51-0.7-6.99-1.48-10.46-2.35s-6.92-1.82-10.34-2.86
	s-6.82-2.16-10.18-3.36c-3.37-1.2-6.7-2.49-10.01-3.86c-3.31-1.37-6.57-2.82-9.81-4.35c-3.23-1.53-6.43-3.14-9.58-4.82
	c-3.16-1.69-6.27-3.45-9.33-5.29c-3.07-1.84-6.09-3.76-9.06-5.74c-2.97-1.99-5.9-4.05-8.77-6.18c-2.88-2.13-5.69-4.33-8.46-6.6
	c-2.77-2.27-5.47-4.6-8.12-7.01c-2.65-2.4-5.24-4.86-7.77-7.4c-2.53-2.53-4.99-5.11-7.4-7.77c-2.4-2.65-4.73-5.36-7.01-8.12
	c-2.27-2.76-4.47-5.58-6.6-8.45c-2.13-2.87-4.19-5.8-6.17-8.77c-1.99-2.97-3.9-5.99-5.74-9.06c-1.84-3.07-3.6-6.18-5.29-9.33
	c-1.69-3.16-3.29-6.35-4.82-9.58c-1.53-3.23-2.98-6.51-4.34-9.81c-1.37-3.3-2.66-6.64-3.86-10.01c-1.21-3.37-2.33-6.77-3.36-10.19
	c-1.04-3.42-1.99-6.86-2.86-10.33s-1.65-6.96-2.35-10.47c-0.7-3.51-1.31-7.03-1.83-10.57c-0.53-3.54-0.96-7.08-1.31-10.64
	c-0.35-3.56-0.61-7.12-0.79-10.7c-0.18-3.57-0.27-7.15-0.27-10.72c0-3.57,0.09-7.15,0.27-10.72c0.17-3.57,0.44-7.14,0.79-10.7
	c0.35-3.56,0.79-7.11,1.31-10.65c0.53-3.54,1.14-7.06,1.83-10.57c0.7-3.51,1.48-6.99,2.35-10.46s1.82-6.92,2.86-10.34
	c1.04-3.42,2.16-6.81,3.36-10.18c1.2-3.36,2.49-6.7,3.86-10.01c1.36-3.31,2.82-6.57,4.34-9.81c1.53-3.23,3.14-6.43,4.82-9.58
	c1.69-3.16,3.45-6.27,5.29-9.33c1.84-3.07,3.75-6.09,5.74-9.06c1.98-2.97,4.04-5.9,6.17-8.77c2.13-2.88,4.33-5.69,6.6-8.46
	c2.27-2.77,4.6-5.47,7.01-8.12c2.41-2.65,4.87-5.24,7.4-7.77c2.53-2.53,5.12-4.99,7.77-7.4c2.65-2.41,5.35-4.74,8.12-7.01
	c2.77-2.27,5.58-4.47,8.46-6.6c2.87-2.13,5.79-4.19,8.77-6.18c2.97-1.99,5.99-3.9,9.06-5.74c3.07-1.84,6.18-3.6,9.33-5.29
	c3.15-1.69,6.34-3.29,9.58-4.82c3.23-1.53,6.5-2.97,9.81-4.34c3.3-1.37,6.64-2.66,10.01-3.86c3.36-1.21,6.76-2.33,10.18-3.36
	c3.42-1.04,6.87-1.99,10.34-2.86c3.47-0.86,6.96-1.65,10.46-2.35c3.51-0.7,7.03-1.31,10.57-1.83c3.54-0.53,7.09-0.96,10.65-1.31
	c3.56-0.35,7.12-0.61,10.7-0.79c3.57-0.18,7.15-0.27,10.72-0.27c3.58,0,7.15,0.09,10.72,0.27c3.57,0.17,7.14,0.44,10.7,0.79
	c3.56,0.35,7.1,0.79,10.64,1.31c3.54,0.53,7.06,1.14,10.57,1.83c3.51,0.7,6.99,1.48,10.47,2.35c3.47,0.87,6.91,1.82,10.33,2.86
	c3.42,1.04,6.82,2.16,10.18,3.36c3.37,1.2,6.7,2.49,10.01,3.86c3.3,1.37,6.57,2.82,9.8,4.34c3.23,1.53,6.43,3.14,9.58,4.82
	c3.15,1.69,6.27,3.45,9.33,5.29c3.07,1.84,6.09,3.75,9.06,5.74c2.97,1.98,5.9,4.05,8.77,6.18c2.87,2.13,5.69,4.33,8.45,6.6
	c2.77,2.27,5.47,4.6,8.12,7.01c2.65,2.4,5.24,4.86,7.77,7.4c2.53,2.53,4.99,5.11,7.4,7.77c2.4,2.65,4.73,5.35,7.01,8.12
	c2.27,2.77,4.47,5.58,6.6,8.46c2.13,2.87,4.19,5.79,6.18,8.77c1.98,2.97,3.9,5.99,5.73,9.06c1.84,3.07,3.6,6.18,5.29,9.33
	c1.69,3.15,3.3,6.34,4.82,9.58c1.53,3.23,2.98,6.5,4.35,9.81c1.37,3.3,2.66,6.64,3.86,10.01c1.2,3.37,2.33,6.76,3.36,10.18
	c1.04,3.42,1.99,6.87,2.86,10.34c0.87,3.47,1.65,6.96,2.35,10.46c0.7,3.51,1.31,7.03,1.83,10.57c0.53,3.54,0.96,7.09,1.31,10.65
	c0.35,3.56,0.61,7.12,0.79,10.7c0.18,3.57,0.26,7.15,0.26,10.72c-0.01,3.58-0.1,7.15-0.28,10.72c-0.18,3.57-0.45,7.14-0.81,10.69
	c-0.35,3.56-0.8,7.1-1.33,10.64c-0.53,3.54-1.15,7.06-1.84,10.56c-0.7,3.51-1.49,6.99-2.36,10.46c-0.87,3.47-1.83,6.91-2.87,10.33
	c-1.04,3.42-2.17,6.81-3.38,10.18c-1.2,3.36-2.49,6.7-3.86,10c-1.37,3.3-2.82,6.57-4.35,9.8c-1.53,3.23-3.14,6.42-4.82,9.57
	c-1.69,3.15-3.45,6.26-5.29,9.32c-1.84,3.07-3.76,6.08-5.74,9.06c-1.99,2.97-4.05,5.89-6.18,8.76c-2.13,2.87-4.33,5.69-6.6,8.45
	c-2.27,2.77-4.6,5.47-7,8.12c-2.4,2.65-4.86,5.23-7.4,7.76c-2.53,2.53-5.11,4.99-7.76,7.4c-2.65,2.4-5.35,4.73-8.12,7
	c-2.76,2.27-5.58,4.47-8.45,6.6c-2.87,2.13-5.79,4.19-8.76,6.18c-2.97,1.99-5.99,3.9-9.06,5.74c-3.06,1.84-6.17,3.6-9.32,5.29
	c-3.15,1.69-6.34,3.29-9.57,4.82s-6.49,2.98-9.8,4.35c-3.3,1.37-6.64,2.66-10,3.86c-3.36,1.21-6.76,2.33-10.18,3.38
	c-3.42,1.04-6.86,2-10.33,2.87c-3.46,0.88-6.95,1.66-10.46,2.36c-3.51,0.7-7.02,1.32-10.56,1.84c-3.54,0.53-7.08,0.97-10.64,1.33
	c-3.56,0.35-7.12,0.62-10.69,0.81C606.21,680.57,602.65,680.66,599.07,680.67z"/>
</svg>
