<?xml version="1.0" encoding="utf-8"?>
<!-- Generator: Adobe Illustrator 30.0.0, SVG Export Plug-In . SVG Version: 9.03 Build 0)  -->
<svg version="1.0" id="Layer_1" xmlns="http://www.w3.org/2000/svg" xmlns:xlink="http://www.w3.org/1999/xlink" x="0px" y="0px"
	 viewBox="0 0 1200 1200" style="enable-background:new 0 0 1200 1200;" xml:space="preserve">
<style type="text/css">
	.st0{clip-path:url(#SVGID_00000045616944417017645500000015965322546294037419_);}
	.st1{clip-path:url(#SVGID_00000008106714433724625540000001526999375724974235_);}
	.st2{clip-path:url(#SVGID_00000075849113061417146650000011352793156148153269_);}
	.st3{clip-path:url(#SVGID_00000018915246028059841830000014420811209980718524_);}
</style>
<path d="M594.8,712.44c-45.75,0-82.97-37.22-82.97-82.97s37.22-82.97,82.97-82.97c45.75,0,82.97,37.22,82.97,82.97
	S640.55,712.44,594.8,712.44z M594.8,525.67c-57.23,0-103.8,46.57-103.8,103.8c0,57.24,46.57,103.8,103.8,103.8
	c57.23,0,103.8-46.56,103.8-103.8C698.6,572.24,652.04,525.67,594.8,525.67"/>
<g>
	<defs>
		<rect id="SVGID_1_" x="481.81" y="916.62" width="23.35" height="63.88"/>
	</defs>
	<clipPath id="SVGID_00000182490440278577599140000003931495523501738368_">
		<use xlink:href="#SVGID_1_"  style="overflow:visible;"/>
	</clipPath>
	<g style="clip-path:url(#SVGID_00000182490440278577599140000003931495523501738368_);">
		<path d="M497.84,917.42c-5.53-1.6-11.55,1.53-12.9,7.12c-5.01,20.82-2.07,44.02-1.86,46.73c0.44,5.65,5.32,9.89,10.94,9.58
			c0.08,0,0.17-0.01,0.25-0.01c5.73-0.46,10.02-5.46,9.56-11.2c-0.04-0.62-1.67-19.2,1.12-39.32
			C505.75,924.62,503.37,919.02,497.84,917.42"/>
	</g>
</g>
<g>
	<defs>
		<rect id="SVGID_00000101818433516044906230000015417248686741838732_" x="409.02" y="560.45" width="434.79" height="420.05"/>
	</defs>
	<clipPath id="SVGID_00000117659218358032305590000014834917262406923704_">
		<use xlink:href="#SVGID_00000101818433516044906230000015417248686741838732_"  style="overflow:visible;"/>
	</clipPath>
	<g style="clip-path:url(#SVGID_00000117659218358032305590000014834917262406923704_);">
		<path d="M842.98,606.97c-2.66-25.9-24.62-46.18-51.22-46.18c-28.39,0-51.5,23.1-51.5,51.5c0,57.93-38.7,143.78-121.77,144.15
			c-0.03,0-0.05,0-0.09,0c-0.04,0-0.08,0-0.12,0c-27.52,0-78.93,2.36-99.15,5.05c-23.82,3.16-41.7,9.48-56.28,19.9
			c-16.57,11.83-28.79,29.04-37.36,52.63c-8.67,23.86-13.85,54.89-15.81,94.85c-1.13,22.96-0.04,41.45,0,42.22
			c0.33,5.53,4.92,9.79,10.39,9.79c0.21,0,0.42,0,0.64-0.02c5.74-0.34,10.11-5.28,9.76-11.02c-0.01-0.18-1.06-18.17,0.01-39.93
			c1.86-37.85,6.64-66.89,14.59-88.76c7.09-19.5,16.87-33.5,29.89-42.8c25.09-17.92,91.82-21.01,135.96-21.06
			c0.14,0,0.28,0.01,0.43,0.01v0c0.02,0,0.11,0,0.25,0c0.03,0,0.05,0,0.08,0l6.75-0.02c0.01,0,0.03,0,0.04,0
			c23.86-0.08,45.84-5.99,65.32-17.53c17.09-10.13,32.02-24.43,44.38-42.52c10.6-15.51,19.24-33.92,24.96-53.23
			c5.21-17.56,7.96-35.44,7.96-51.7c0-16.91,13.76-30.66,30.66-30.66c16.91,0,30.66,13.75,30.66,30.66
			c0,70.62-29.65,163.8-94.71,202.05c-12.39,5.04-22.64,16.76-30.48,34.87c-5.83,13.48-10.47,30.77-13.81,51.39
			c-5.58,34.5-5.65,66.39-5.65,67.72c0,5.75,4.66,10.42,10.42,10.42c5.75,0,10.41-4.66,10.42-10.42c0-0.31,0.07-31.76,5.42-64.63
			c3.06-18.88,7.23-34.46,12.37-46.31c5.57-12.85,12.29-21.1,19.44-23.86c0.57-0.21,1.13-0.46,1.67-0.78
			c18.37-10.65,34.94-25.32,49.25-43.58c0,0,31.17-35.65,46.44-97.92c11.31-46.11,10.33-76.82,10.33-76.82
			C843.52,611.89,843.33,609.4,842.98,606.97"/>
	</g>
</g>
<g>
	<defs>
		<rect id="SVGID_00000035492082959330422550000014705897918432916614_" x="489.27" y="219.07" width="222.69" height="214.17"/>
	</defs>
	<clipPath id="SVGID_00000085223744380335678750000007927211978441636992_">
		<use xlink:href="#SVGID_00000035492082959330422550000014705897918432916614_"  style="overflow:visible;"/>
	</clipPath>
	<g style="clip-path:url(#SVGID_00000085223744380335678750000007927211978441636992_);">
		<path d="M570.88,306.99c3.9-0.2,7.36-2.55,8.98-6.1l21.02-46.05l19.91,44.09c1.54,3.42,4.8,5.75,8.54,6.1l47.28,4.51l-36.28,33.25
			c-2.79,2.56-3.98,6.43-3.11,10.12l11.38,48.1l-42.45-24.45c-3.21-1.86-7.16-1.86-10.39-0.03l-43.65,24.84l11.17-49.78
			c0.82-3.63-0.37-7.43-3.11-9.97l-34.97-32.31L570.88,306.99z M492.75,307.81l48.81,45.08l-15.03,66.97
			c-0.91,4.04,0.66,8.23,3.99,10.69c3.33,2.46,7.79,2.73,11.39,0.68l59-33.57l58.23,33.54c1.62,0.93,3.43,1.4,5.21,1.4
			c2.21,0,4.4-0.7,6.25-2.07c3.35-2.49,4.89-6.74,3.93-10.79L659,354.06l49.08-44.98c3.05-2.79,4.17-7.12,2.85-11.03
			c-1.31-3.92-4.81-6.7-8.92-7.09l-64.65-6.17l-26.89-59.54c-1.69-3.74-5.41-6.14-9.51-6.15c0,0-0.01,0-0.03,0
			c-4.09,0-7.81,2.39-9.5,6.11l-27.96,61.22l-64.16,3.26c-4.21,0.22-7.87,2.93-9.3,6.89C488.58,300.52,489.66,304.95,492.75,307.81"
			/>
	</g>
</g>
<path d="M812.23,368.32c3.9-0.2,7.36-2.55,8.98-6.1l21.03-46.05l19.91,44.09c1.55,3.42,4.8,5.75,8.54,6.11l47.28,4.51l-36.28,33.25
	c-2.79,2.56-3.98,6.43-3.11,10.12l11.38,48.1l-42.46-24.46c-3.21-1.85-7.16-1.86-10.39-0.03l-43.65,24.84l11.16-49.78
	c0.81-3.64-0.37-7.44-3.11-9.97l-34.97-32.31L812.23,368.32z M734.1,369.15l48.81,45.07l-15.02,66.97
	c-0.91,4.04,0.66,8.23,3.98,10.7c3.33,2.46,7.8,2.73,11.39,0.68l59-33.57l58.23,33.55c1.62,0.93,3.42,1.4,5.22,1.4
	c2.21,0,4.4-0.7,6.25-2.07c3.35-2.49,4.88-6.74,3.93-10.8l-15.55-65.68l49.09-44.98c3.05-2.79,4.17-7.11,2.85-11.03
	c-1.32-3.92-4.81-6.69-8.93-7.08l-64.64-6.17l-26.89-59.55c-1.69-3.74-5.41-6.14-9.51-6.15c0,0-0.02,0-0.02,0
	c-4.09,0-7.81,2.39-9.51,6.11l-27.95,61.22l-64.16,3.26c-4.2,0.21-7.87,2.93-9.3,6.88C729.93,361.86,731.01,366.29,734.1,369.15"/>
<g>
	<defs>
		<rect id="SVGID_00000096778664351816197360000012518756425999631263_" x="871.45" y="472.87" width="222.27" height="213.7"/>
	</defs>
	<clipPath id="SVGID_00000079480479231151983280000011557315379208425908_">
		<use xlink:href="#SVGID_00000096778664351816197360000012518756425999631263_"  style="overflow:visible;"/>
	</clipPath>
	<g style="clip-path:url(#SVGID_00000079480479231151983280000011557315379208425908_);">
		<path d="M1022.78,596.73c-2.79,2.56-3.98,6.43-3.11,10.12l11.38,48.1L988.6,630.5c-3.22-1.85-7.17-1.86-10.39-0.03l-43.65,24.84
			l11.17-49.78c0.82-3.64-0.37-7.44-3.11-9.97l-34.98-32.31l45.68-2.32c3.9-0.2,7.37-2.55,8.98-6.1l21.02-46.05l19.91,44.09
			c1.54,3.42,4.8,5.75,8.54,6.1l47.28,4.51L1022.78,596.73z M1093.37,551.99c-1.31-3.92-4.81-6.7-8.93-7.09l-64.64-6.17l-26.9-59.54
			c-1.69-3.74-5.41-6.15-9.51-6.16c-0.01,0-0.02,0-0.02,0c-4.1,0-7.82,2.39-9.51,6.12l-27.95,61.22l-64.17,3.27
			c-4.2,0.21-7.86,2.93-9.3,6.88s-0.35,8.39,2.73,11.24L924,606.83l-15.03,66.97c-0.9,4.04,0.66,8.23,3.98,10.69
			c3.33,2.47,7.8,2.73,11.39,0.68l59-33.57l58.23,33.55c1.62,0.93,3.42,1.4,5.21,1.4c2.21,0,4.4-0.7,6.25-2.07
			c3.34-2.49,4.89-6.74,3.93-10.8L1041.44,608l49.09-44.98C1093.57,560.23,1094.69,555.9,1093.37,551.99"/>
	</g>
</g>
<path d="M363.76,437.86c-1.61-0.91-3.39-1.37-5.17-1.37c-1.81,0-3.61,0.46-5.22,1.4l-42.45,24.46l11.38-48.11
	c0.87-3.68-0.32-7.56-3.11-10.11l-36.28-33.25l47.28-4.51c3.74-0.36,6.99-2.69,8.54-6.11l19.91-44.09l21.02,46.05
	c1.62,3.55,5.09,5.91,8.98,6.1l45.68,2.32l-34.98,32.31c-2.74,2.53-3.92,6.33-3.1,9.97l11.17,49.78L363.76,437.86z M429.01,491.89
	c3.33-2.46,4.89-6.66,3.98-10.7l-15.02-66.97l48.81-45.08c3.09-2.85,4.17-7.28,2.73-11.24c-1.43-3.96-5.1-6.67-9.3-6.88l-64.16-3.26
	l-27.95-61.22c-1.7-3.72-5.42-6.12-9.51-6.12c-0.01,0-0.02,0-0.02,0c-4.1,0.01-7.82,2.42-9.51,6.15l-26.89,59.55l-64.65,6.17
	c-4.11,0.4-7.61,3.17-8.92,7.09c-1.31,3.91-0.2,8.23,2.85,11.03l49.09,44.98l-15.54,65.68c-0.96,4.06,0.58,8.3,3.93,10.79
	c1.84,1.38,4.04,2.07,6.25,2.07c1.79,0,3.6-0.46,5.22-1.4L358.61,459l59,33.57C421.21,494.62,425.68,494.35,429.01,491.89"/>
<path d="M258.26,595.56c-2.74,2.53-3.93,6.33-3.11,9.97l11.17,49.78l-43.65-24.84c-1.6-0.91-3.39-1.37-5.17-1.37
	c-1.8,0-3.6,0.46-5.22,1.4l-42.45,24.45l11.38-48.1c0.87-3.69-0.32-7.56-3.11-10.12l-36.28-33.25l47.28-4.51
	c3.74-0.36,6.99-2.69,8.54-6.11l19.91-44.09l21.02,46.05c1.62,3.55,5.09,5.9,8.98,6.1l45.68,2.32L258.26,595.56z M319.12,543.63
	l-64.16-3.27l-27.95-61.22c-1.71-3.73-5.43-6.12-9.54-6.12c-4.1,0.01-7.82,2.41-9.51,6.16l-26.89,59.55l-64.65,6.17
	c-4.11,0.39-7.61,3.17-8.92,7.09c-1.32,3.92-0.2,8.24,2.85,11.03L159.44,608l-15.54,65.68c-0.96,4.06,0.58,8.3,3.93,10.8
	c1.84,1.37,4.04,2.07,6.25,2.07c1.79,0,3.6-0.46,5.21-1.4l58.23-33.55l59,33.57c3.6,2.05,8.07,1.78,11.39-0.68
	c3.33-2.46,4.89-6.66,3.98-10.69l-15.02-66.97l48.8-45.08c3.09-2.86,4.17-7.29,2.74-11.24
	C326.99,546.55,323.32,543.84,319.12,543.63"/>
</svg>
