<?xml version="1.0" encoding="utf-8"?>
<!-- Generator: Adobe Illustrator 30.0.0, SVG Export Plug-In . SVG Version: 9.03 Build 0)  -->
<svg version="1.0" id="Layer_1" xmlns="http://www.w3.org/2000/svg" xmlns:xlink="http://www.w3.org/1999/xlink" x="0px" y="0px"
	 viewBox="0 0 1200 1200" style="enable-background:new 0 0 1200 1200;" xml:space="preserve">
<style type="text/css">
	.st0{clip-path:url(#SVGID_00000145756216021296478050000014632530141197768835_);}
</style>
<g>
	<defs>
		<rect id="SVGID_1_" x="135.55" y="130.37" width="930.66" height="937.62"/>
	</defs>
	<clipPath id="SVGID_00000180342393507421311330000008083632599041157504_">
		<use xlink:href="#SVGID_1_"  style="overflow:visible;"/>
	</clipPath>
	<g style="clip-path:url(#SVGID_00000180342393507421311330000008083632599041157504_);">
		<path d="M1048.54,621.39l-1.42,4.18c-13.15,38.7-26.74,78.73-52.41,113.33c-24.68,33.25-52.8,52.46-85.99,58.72
			c-2.48,0.46-5.12,0.87-7.93,1.3c-12.04,1.83-27.03,4.1-44.28,13.89c-14.58,8.26-27.31,19.92-37.86,34.66
			c-0.1,0.14-0.2,0.29-0.29,0.44l-23.05,37.55c-27.46-0.78-54.78-7.58-79.28-19.76c-33.75-16.79-55.33-31.19-65.96-44.02
			c-3.54-4.27-3.9-10.21-0.91-14.8c22.11-33.94,37.15-58.06,45.95-73.73c3.37-6,6.56-11.62,9.56-16.92
			c21.97-38.77,34.07-60.13,34.16-81.65c0.01-3.88-0.46-7.9-0.95-12.16c-1.88-16.09-4.19-35.91,20.39-59.96
			c8.61,10.29,18.59,22.47,30.04,36.65c5.29,6.56,13.09,10.13,21.14,10.13c3.41,0,6.86-0.63,10.2-1.97
			c17.69-7.02,39.09-23.71,67.36-52.52c21.04-21.45,37.31-47.77,47.2-76.26c14.43-2.5,26.19-0.14,32.61,6.68
			c6.51,6.9,5.58,16.39,3.64,23.14c-10.79,37.77-57,97.48-93.63,131.13c-3.01,2.77-3.2,7.46-0.44,10.47
			c1.46,1.59,3.46,2.39,5.45,2.39c1.79,0,3.58-0.64,5-1.95c32.91-30.23,85.01-93.02,97.85-137.97c1.15-4.02,1.78-7.92,1.94-11.67
			c0.13,0.02,0.26,0.05,0.38,0.06c7.35,0.93,13.24,4.46,17.01,10.19c5.41,8.21,6.28,20.08,2.47,33.43
			c-11.04,38.63-51.84,95.87-84.64,130.11c-2.82,2.95-2.72,7.64,0.23,10.47c1.43,1.37,3.27,2.05,5.11,2.05
			c1.96,0,3.9-0.77,5.36-2.29c28.21-29.45,74.98-90.06,88.18-136.27c1.14-4.02,1.93-7.95,2.4-11.78
			c8.18,9.06,14.35,23.88,9.46,38.25c-14.21,41.75-47.67,97.15-72.75,130.95c-2.44,3.29-1.75,7.92,1.54,10.36
			c1.33,0.98,2.87,1.45,4.41,1.45c2.26,0,4.5-1.03,5.95-2.99c24.15-32.54,55.91-84.74,71.91-126.8
			C1048.79,597.13,1052.95,608.43,1048.54,621.39z M791.67,957.4c1.38,7.28-0.15,13.95-4.44,19.32
			c-6.12,7.68-17.14,12.18-31.02,12.68c-40.14,1.43-107.2-19.69-149.89-40.3c-3.68-1.78-8.11-0.23-9.89,3.45
			c-1.78,3.68-0.23,8.11,3.44,9.89c22.37,10.79,50.5,21.35,77.21,29c20.83,5.97,50.23,12.83,75.13,12.83c1.53,0,3.03-0.03,4.52-0.08
			c4.17-0.14,8.16-0.61,11.95-1.36c-6.04,10.48-18.04,20.83-33.01,20.83c-0.15,0-0.3,0-0.45-0.01
			c-44.1-0.6-107.12-15.31-147.02-28.72c-3.87-1.3-8.08,0.78-9.37,4.66c-1.3,3.87,0.78,8.07,4.65,9.38
			c38.41,12.9,97.88,26.99,142.82,29.2c-7.11,7.62-16.44,14.98-29.85,14.98c-0.17,0-0.33,0-0.5,0l-4.4-0.06
			c-40.87-0.54-83.14-1.1-123.98-14.83c-39.25-13.19-66.21-34-82.42-63.64c-1.21-2.21-2.41-4.61-3.68-7.14
			c-5.46-10.89-12.27-24.44-26.9-37.83c-12.36-11.31-27.38-19.81-44.65-25.29c-0.17-0.05-0.33-0.09-0.5-0.13l-42.84-10.33
			c-7.74-26.36-9.72-54.44-5.7-81.5c5.54-37.3,12.57-62.27,21.48-76.34c2.96-4.68,8.5-6.86,13.8-5.44
			c39.11,10.55,66.69,17.38,84.33,20.92c6.73,1.34,13.06,2.63,19.02,3.85c43.68,8.93,67.73,13.84,88.23,7.27
			c3.69-1.18,7.37-2.88,11.27-4.66c14.71-6.76,32.85-15.07,63.32,0.87c-7.12,11.36-15.62,24.62-25.58,39.89
			c-6.55,10.05-5.78,23.05,1.91,32.34c12.14,14.65,34.64,29.85,70.78,47.83c26.89,13.38,56.96,20.72,87.11,21.32
			c6.85,12.94,8.23,24.87,3.73,33.09c-4.54,8.32-13.87,10.36-20.89,10.61c-30.59,1.1-98-17.14-153.65-48.52
			c-3.56-2.01-8.08-0.75-10.09,2.81c-2.01,3.56-0.75,8.08,2.82,10.09c37.88,21.36,110.72,50.49,157.64,50.49
			c1.29,0,2.56-0.02,3.81-0.07c4.18-0.15,8.08-0.75,11.69-1.76C791.64,957.14,791.64,957.27,791.67,957.4z M322.54,913.46
			c-9.31-1.76-14.14-9.99-16.54-16.58c-10.49-28.73-13.98-98.5-1.34-161.12c0.81-4.01-1.78-7.91-5.79-8.72
			c-4.01-0.81-7.91,1.79-8.72,5.79c-8.84,43.8-14.09,125.23,1.94,169.14c1.43,3.93,3.22,7.45,5.29,10.58
			c-0.12,0.07-0.24,0.11-0.35,0.18c-6.49,3.56-13.32,4.17-19.76,1.75c-9.2-3.45-16.88-12.55-21.64-25.59
			c-13.77-37.74-14.4-108.03-8-155.01c0.55-4.06-2.28-7.79-6.33-8.34c-4.06-0.55-7.79,2.29-8.34,6.34
			c-3.35,24.59-4.71,54.62-3.73,82.39c0.81,22.97,3.64,55.45,12.49,79.69c1.43,3.92,3.11,7.57,4.99,10.94
			c-11.95-2.52-25.66-10.89-30.14-25.38c-13.06-42.13-18.55-106.62-18.12-148.7c0.04-4.09-3.24-7.44-7.33-7.48
			c-0.03,0-0.05,0-0.08,0c-4.06,0-7.36,3.27-7.41,7.33c-0.41,40.52,4.58,101.43,16.36,144.85c-9.55-4.45-19.56-11.16-23.62-24.23
			l-1.3-4.2c-12.11-39.04-24.65-79.42-24.21-122.51c0.42-41.4,11.88-73.47,35.05-98.05c1.72-1.83,3.63-3.71,5.65-5.7
			c8.67-8.56,19.45-19.22,27.67-37.27c6.93-15.25,10.38-32.17,10.25-50.29c0-0.18-0.01-0.35-0.02-0.52l-3.43-43.94
			c22.67-15.5,48.78-26.07,75.75-30.6c37.18-6.26,63.1-7.29,79.24-3.16c5.37,1.38,9.16,5.97,9.44,11.44
			c2.05,40.45,4.07,68.81,6.17,86.67c0.8,6.82,1.52,13.24,2.21,19.3c5.01,44.29,7.78,68.69,20.36,86.15
			c2.26,3.14,5.01,6.12,7.91,9.28c10.97,11.9,24.49,26.58,18.75,60.49c-13.01-3.26-28.24-7.24-45.84-11.99
			c-11.59-3.12-23.71,1.63-30.16,11.81c-10.19,16.08-17.69,42.16-23.62,82.09c-4.41,29.73-2.1,60.58,6.64,89.45
			C342.66,910.2,331.75,915.19,322.54,913.46z M193.83,452.96c-1.21-9.41,5.13-16.54,10.65-20.87
			c30.94-24.21,103.41-45.35,152.83-51.06c4.06-0.47,6.98-4.14,6.51-8.2c-0.47-4.06-4.14-6.98-8.21-6.51
			c-44.38,5.13-123.45,25.29-160.26,54.11c-3.29,2.57-6.1,5.36-8.42,8.3c-0.09-0.1-0.18-0.19-0.28-0.29
			c-5.39-5.07-8.08-11.38-7.77-18.24c0.44-9.81,6.71-19.93,17.65-28.5c31.64-24.76,98.29-47.08,144.95-55.51
			c4.02-0.72,6.7-4.58,5.97-8.6c-0.72-4.02-4.58-6.7-8.6-5.97c-40.14,7.25-113.59,28.79-151.44,58.42
			c-3.28,2.57-6.24,5.29-8.87,8.12c-1.29-12.14,2.43-27.77,14.82-36.51c36.04-25.43,95.66-50.58,135.82-63.18
			c3.9-1.22,6.07-5.38,4.85-9.28c-1.22-3.9-5.38-6.07-9.28-4.84c-38.66,12.13-95.05,35.69-132.71,60.31
			c1.29-10.46,4.57-22.05,15.75-29.94l3.59-2.54c33.39-23.59,67.91-47.98,109.03-60.88c39.51-12.4,73.55-11.41,104.08,3.03
			c2.28,1.08,4.65,2.31,7.17,3.62c10.82,5.6,24.29,12.56,44,14.79c16.64,1.88,33.79-0.06,50.99-5.79c0.17-0.05,0.33-0.11,0.49-0.17
			l40.73-16.84c21.76,16.77,39.87,38.34,52.52,62.59c17.44,33.43,26.44,57.76,27.49,74.39c0.36,5.53-2.85,10.55-7.96,12.5
			c-37.83,14.46-64.17,25.13-80.52,32.65c-6.24,2.87-12.12,5.54-17.67,8.07c-40.57,18.45-62.92,28.61-75.64,45.97
			c-2.3,3.13-4.27,6.66-6.38,10.39c-7.93,14.12-17.72,31.51-51.74,36.52c-0.92-13.37-1.83-29.09-2.76-47.3
			c-0.61-11.99-8.87-22.05-20.56-25.04c-18.44-4.71-45.56-3.8-85.37,2.9c-29.63,4.99-58.26,16.72-83.02,33.95
			C203.16,471.08,195.03,462.25,193.83,452.96z M723.17,624.12c0.44,3.8,0.86,7.39,0.84,10.38c-0.06,17.65-11.49,37.81-32.24,74.42
			c-3.01,5.32-6.21,10.96-9.59,16.96c-3.17,5.64-7.18,12.41-12.05,20.4c-37.47-19.99-61.33-9.06-77.33-1.72
			c-3.48,1.61-6.76,3.11-9.6,4.02c-16.81,5.39-39.52,0.75-80.75-7.67c-5.98-1.21-12.33-2.51-19.09-3.87
			c-6.34-1.27-14.03-2.98-23.12-5.15c7.44-41.82-10.34-61.13-22.27-74.07c-2.6-2.82-5.04-5.47-6.79-7.9
			c-10.32-14.32-12.93-37.35-17.66-79.16c-0.68-6.07-1.42-12.51-2.22-19.35c-0.75-6.43-1.5-14.28-2.24-23.59
			c42.07-5.86,54.94-28.72,63.56-44.06c1.88-3.34,3.64-6.49,5.41-8.9c10.43-14.24,31.52-23.83,69.82-41.25
			c5.56-2.53,11.47-5.22,17.72-8.09c5.88-2.7,13.11-5.83,21.75-9.42c18.57,38.2,44.29,43.37,61.55,46.84
			c3.75,0.75,7.3,1.47,10.13,2.39c16.77,5.52,32.41,22.62,60.81,53.66c4.12,4.5,8.5,9.29,13.18,14.36
			c4.38,4.75,9.59,10.66,15.66,17.76C718.09,580.57,721.12,606.64,723.17,624.12z M592.02,188.25c8.58-4.05,17.31-0.23,23.13,3.69
			c32.59,21.93,75.09,84.33,95.79,129.57c1.25,2.72,3.93,4.33,6.74,4.33c1.03,0,2.08-0.21,3.07-0.67c3.72-1.7,5.35-6.09,3.65-9.81
			c-18.59-40.64-62.21-109.6-100.98-135.7c-3.47-2.33-6.99-4.14-10.5-5.44c0.06-0.11,0.13-0.23,0.18-0.35
			c3.16-6.7,8.33-11.21,14.95-13.03c9.47-2.6,21.03,0.22,32.55,7.98c33.33,22.44,75.15,78.94,97.59,120.71
			c1.33,2.49,3.88,3.9,6.53,3.9c1.18,0,2.38-0.28,3.49-0.88c3.6-1.93,4.96-6.42,3.02-10.02c-11.75-21.87-28.3-46.96-45.41-68.85
			c-14.16-18.11-35.54-42.72-56.94-57.13c-3.45-2.33-6.96-4.3-10.46-5.92c11.15-4.98,27.15-6.27,39.31,2.82
			c35.33,26.41,77.67,75.35,102.07,109.65c1.45,2.04,3.73,3.11,6.03,3.11c1.49,0,2.98-0.44,4.29-1.37
			c3.33-2.38,4.11-6.99,1.74-10.33c-23.49-33.02-63.32-79.36-98.37-107.57c10.35-2.01,22.39-2.47,33.35,5.73l3.52,2.63
			c32.76,24.47,66.62,49.76,91.6,84.87c24,33.74,33.58,66.43,29.28,99.93c-0.33,2.51-0.76,5.14-1.21,7.94
			c-1.99,12.02-4.45,26.98-0.48,46.42c3.35,16.41,10.51,32.13,21.27,46.71c0.1,0.14,0.21,0.28,0.32,0.41l28.6,33.53
			c-9.23,25.87-24.14,49.75-43.3,69.29c-26.4,26.92-46.76,42.99-62.25,49.13c-5.14,2.05-10.92,0.55-14.36-3.71
			c-25.45-31.52-43.74-53.27-55.93-66.49c-4.66-5.05-9.02-9.82-13.14-14.32c-30.08-32.88-46.65-50.99-67.09-57.72
			c-3.68-1.22-7.66-2.01-11.86-2.86c-15.87-3.18-35.43-7.12-50.72-37.92c12.44-5.01,27.1-10.73,44.14-17.25
			c11.21-4.28,18.23-15.24,17.46-27.29c-1.21-18.99-10.47-44.5-29.14-80.29c-13.9-26.64-33.91-50.24-57.95-68.46
			C577.66,202.72,583.55,192.26,592.02,188.25z M1051.43,572.1c-0.44-0.71-0.88-1.4-1.3-2.07c-0.34-0.55-0.74-1.03-1.2-1.47
			c1.74-20.94-10.43-41.57-25.31-50.7c-0.39-0.24-0.8-0.43-1.22-0.59c-1.17-5.29-3.16-10.16-5.99-14.46
			c-6.15-9.32-15.91-15.25-27.51-16.73c-1.48-0.19-2.91,0.08-4.17,0.69c-1.52-4.38-3.89-8.34-7.14-11.78
			c-10.19-10.82-27.47-14.68-47.67-10.78l-27.34-32.07c-9.39-12.78-15.62-26.46-18.52-40.67c-3.43-16.76-1.3-29.66,0.58-41.05
			c0.47-2.93,0.93-5.7,1.29-8.46c4.81-37.37-5.63-73.48-31.89-110.4c-26.33-37-61.13-63.01-94.79-88.16l-3.52-2.63
			c-20-14.95-41.82-9.42-54.86-6.12c-0.82,0.2-1.6,0.4-2.37,0.59c-0.63,0.16-1.21,0.4-1.75,0.68c-19.39-8.12-42.77-2.93-56.06,8.4
			c-0.35,0.31-0.66,0.63-0.95,0.98c-5.39-0.52-10.64-0.13-15.6,1.24c-10.76,2.96-19.43,10.42-24.41,20.99
			c-0.64,1.35-0.83,2.8-0.63,4.18c-4.63,0.09-9.15,1.13-13.4,3.14c-13.44,6.36-22.47,21.6-24.99,42.02l-38.94,16.1
			c-15.06,4.97-29.99,6.67-44.41,5.05c-17-1.93-28.61-7.93-38.85-13.24c-2.64-1.37-5.14-2.65-7.65-3.84
			c-34.06-16.12-71.62-17.35-114.85-3.79c-43.33,13.6-78.82,38.68-113.14,62.92l-3.58,2.53c-20.41,14.4-21.89,36.87-22.78,50.29
			c-0.05,0.84-0.11,1.65-0.17,2.43c-0.05,0.64,0,1.28,0.11,1.88c-13.72,15.92-16,39.77-9.33,55.9c0.17,0.42,0.4,0.82,0.64,1.19
			c-2.16,4.97-3.41,10.09-3.64,15.23c-0.5,11.15,3.91,21.7,12.42,29.71c1.09,1.03,2.41,1.66,3.78,1.9
			c-1.34,4.42-1.75,9.04-1.15,13.71c1.89,14.76,13.59,28.05,32.24,36.76l3.27,42c0.08,15.86-2.93,30.59-8.93,43.79
			c-7.08,15.57-16.38,24.76-24.59,32.87c-2.11,2.09-4.11,4.06-6.01,6.08c-25.85,27.41-38.63,62.76-39.09,108.06
			c-0.46,45.41,12.42,86.91,24.87,127.04l1.3,4.19c7.39,23.86,28.3,32.22,40.78,37.21c0.78,0.31,1.54,0.62,2.26,0.91
			c0.6,0.24,1.21,0.4,1.83,0.48c10.22,16.84,30.16,26.27,46.95,26.27c1.13,0,2.24-0.04,3.33-0.13c0.46-0.03,0.91-0.12,1.34-0.23
			c4.06,3.59,8.54,6.36,13.36,8.16c4.25,1.59,8.65,2.39,13.08,2.39c6.45,0,12.93-1.68,19.01-5.02c1.31-0.72,2.31-1.79,2.97-3.01
			c3.79,2.64,8.05,4.45,12.69,5.33c2.09,0.4,4.21,0.59,6.36,0.59c12.86,0,26.52-7,38.56-19.89l40.98,9.87
			c15.1,4.82,28.18,12.23,38.89,22.02c12.62,11.55,18.49,23.24,23.66,33.55c1.33,2.65,2.59,5.16,3.92,7.6
			c18.09,33.05,47.75,56.13,90.69,70.56c43.04,14.47,86.49,15.05,128.5,15.61l4.4,0.05c0.25,0.01,0.49,0.01,0.72,0.01
			c24.53,0,38.74-17.06,47.27-27.3c0.53-0.64,1.05-1.27,1.56-1.86c0.42-0.5,0.75-1.05,1.02-1.61c20.46-4.81,36.32-22.76,40.4-39.73
			c0.11-0.45,0.17-0.9,0.19-1.35c4.67-2.75,8.69-6.15,11.89-10.17c6.97-8.73,9.6-19.85,7.41-31.34c-0.27-1.47-0.97-2.75-1.94-3.75
			c3.69-2.79,6.74-6.28,9-10.42c7.13-13.05,5.47-30.67-4.49-48.67l22.05-35.93c9.25-12.87,20.34-23.03,32.96-30.18
			c14.88-8.45,27.81-10.41,39.22-12.14c2.94-0.45,5.72-0.87,8.44-1.38c37.02-6.98,68.15-28.07,95.14-64.45
			c27.06-36.47,41.03-77.61,54.55-117.39l1.42-4.16C1070.6,602.52,1058.61,583.47,1051.43,572.1"/>
	</g>
</g>
</svg>
