<?xml version="1.0" encoding="utf-8"?>
<!-- Generator: Adobe Illustrator 30.0.0, SVG Export Plug-In . SVG Version: 9.03 Build 0)  -->
<svg version="1.0" id="Layer_1" xmlns="http://www.w3.org/2000/svg" xmlns:xlink="http://www.w3.org/1999/xlink" x="0px" y="0px"
	 viewBox="0 0 1200 1200" style="enable-background:new 0 0 1200 1200;" xml:space="preserve">
<style type="text/css">
	.st0{clip-path:url(#SVGID_00000043415710292183733980000011406932374135241657_);}
</style>
<g>
	<defs>
		<rect id="SVGID_1_" x="175.39" y="176.93" width="849.17" height="845.83"/>
	</defs>
	<clipPath id="SVGID_00000129894676770535231650000014026055268092795276_">
		<use xlink:href="#SVGID_1_"  style="overflow:visible;"/>
	</clipPath>
	<g style="clip-path:url(#SVGID_00000129894676770535231650000014026055268092795276_);">
		<path d="M1024.7,601.6c0-234.56-190.11-424.67-424.63-424.67c-234.51,0-424.67,190.11-424.67,424.67
			c0,199.14,137.1,366.28,322.06,412.17V731.38h-87.58V601.6h87.58v-55.92c0-144.53,65.4-211.53,207.3-211.53
			c26.91,0,73.33,5.26,92.31,10.56v117.62c-10.03-1.07-27.44-1.6-49.05-1.6c-69.64,0-96.55,26.38-96.55,94.94v45.89h138.7
			l-23.82,129.78H651.48v291.76c210.28-25.38,373.22-204.44,373.22-421.54V601.6z"/>
	</g>
</g>
</svg>
