<?xml version="1.0" encoding="utf-8"?>
<!-- Generator: Adobe Illustrator 30.0.0, SVG Export Plug-In . SVG Version: 9.03 Build 0)  -->
<svg version="1.0" id="Layer_1" xmlns="http://www.w3.org/2000/svg" xmlns:xlink="http://www.w3.org/1999/xlink" x="0px" y="0px"
	 viewBox="0 0 1200 1200" style="enable-background:new 0 0 1200 1200;" xml:space="preserve">
<style type="text/css">
	.st0{clip-path:url(#SVGID_00000065063998507472836810000006822954131142947226_);}
</style>
<g>
	<defs>
		<rect id="SVGID_1_" x="148.17" y="148.17" width="903.33" height="903.33"/>
	</defs>
	<clipPath id="SVGID_00000098222064517526361880000015895173207481776278_">
		<use xlink:href="#SVGID_1_"  style="overflow:visible;"/>
	</clipPath>
	<g style="clip-path:url(#SVGID_00000098222064517526361880000015895173207481776278_);">
		<path d="M412.66,151.28c-48.04,2.26-80.85,9.96-109.52,21.19c-29.7,11.58-54.85,27.06-79.87,52.21
			c-25.06,25.15-40.46,50.33-51.91,80.08c-11.11,28.76-18.64,61.57-20.76,109.65c-2.13,48.12-2.6,63.48-2.38,186.11
			c0.21,122.59,0.77,137.99,3.06,186.15c2.3,48.04,9.96,80.8,21.19,109.53c11.58,29.7,27.06,54.8,52.21,79.87
			c25.15,25.06,50.33,40.42,80.08,51.91c28.72,11.11,61.57,18.68,109.61,20.76c48.16,2.13,63.52,2.6,186.11,2.34
			c122.63-0.21,137.99-0.76,186.16-3.06c48.04-2.3,80.8-10,109.52-21.19c29.7-11.61,54.84-27.06,79.87-52.21
			c25.02-25.14,40.42-50.33,51.91-80.08c11.11-28.72,18.68-61.57,20.76-109.57c2.09-48.16,2.6-63.57,2.38-186.15
			c-0.21-122.59-0.81-137.95-3.06-186.11c-2.3-48.08-9.96-80.85-21.19-109.57c-11.61-29.7-27.06-54.8-52.21-79.87
			c-25.15-25.02-50.33-40.46-80.08-51.91c-28.72-11.11-61.57-18.68-109.61-20.76c-48.16-2.13-63.57-2.6-186.15-2.38
			C476.19,148.43,460.83,148.98,412.66,151.28 M417.94,967.43c-43.99-1.92-67.91-9.24-83.86-15.36c-21.11-8.17-36.12-17.96-52-33.66
			c-15.83-15.79-25.62-30.81-33.87-51.83c-6.17-15.91-13.62-39.78-15.7-83.82c-2.26-47.57-2.76-61.87-2.98-182.41
			c-0.22-120.5,0.21-134.8,2.3-182.41c1.87-43.99,9.23-67.91,15.36-83.82c8.17-21.11,17.91-36.13,33.66-52
			c15.79-15.83,30.8-25.62,51.87-33.87c15.91-6.21,39.78-13.62,83.78-15.7c47.61-2.26,61.87-2.73,182.41-2.98
			c120.54-0.25,134.84,0.17,182.45,2.3c44,1.91,67.91,9.19,83.82,15.36c21.1,8.17,36.17,17.87,52,33.65s25.66,30.76,33.87,51.87
			c6.22,15.87,13.62,39.78,15.7,83.74c2.25,47.61,2.76,61.91,2.98,182.41c0.21,120.54-0.21,134.84-2.3,182.41
			c-1.92,44-9.24,67.95-15.36,83.87c-8.17,21.06-17.91,36.12-33.7,51.95c-15.79,15.79-30.76,25.62-51.87,33.87
			c-15.87,6.22-39.79,13.62-83.74,15.7c-47.61,2.26-61.87,2.76-182.45,2.98c-120.5,0.21-134.8-0.21-182.41-2.3 M785.99,358.33
			c0.04,29.91,24.38,54.12,54.25,54.04c29.91-0.04,54.12-24.34,54.08-54.25c-0.04-29.91-24.38-54.12-54.29-54.08
			c-29.91,0.04-54.12,24.38-54.08,54.25 M367.82,600.1c0.26,128.03,104.24,231.6,232.24,231.35
			c128.03-0.26,231.64-104.21,231.39-232.24c-0.26-127.99-104.25-231.6-232.28-231.38C471.17,368.07,367.56,472.06,367.82,600.1
			 M449.13,599.93c-0.13-83.1,67.1-150.62,150.2-150.76c83.1-0.17,150.62,67.06,150.79,150.2c0.17,83.1-67.1,150.63-150.2,150.76
			c-83.1,0.17-150.63-67.1-150.76-150.2"/>
	</g>
</g>
</svg>
