<?xml version="1.0" encoding="utf-8"?>
<!-- Generator: Adobe Illustrator 30.0.0, SVG Export Plug-In . SVG Version: 9.03 Build 0)  -->
<svg version="1.0" id="Layer_1" xmlns="http://www.w3.org/2000/svg" xmlns:xlink="http://www.w3.org/1999/xlink" x="0px" y="0px"
	 viewBox="0 0 1200 1200" style="enable-background:new 0 0 1200 1200;" xml:space="preserve">
<style type="text/css">
	.st0{clip-path:url(#SVGID_00000035523547362925337050000003194059684997371305_);}
	.st1{clip-path:url(#SVGID_00000071529596015106045060000014071722123107906750_);}
</style>
<g>
	<path d="M1022.89,948.77c8.11,0.07,14.77-6.43,14.84-14.54c0-0.34,0-0.67,0-1.01c0-11.02-6.65-16.3-20.3-16.3h-22.02v57.67h8.3
		v-25.15h10.17l0.23,0.3l15.81,24.82h8.86l-17.01-25.72l1.12-0.15V948.77z M1013.32,942.97h-9.61v-19.51h12.19
		c6.28,0,13.46,1.05,13.46,9.27c0,9.46-7.25,10.24-16.08,10.24"/>
	<g>
		<defs>
			<rect id="SVGID_1_" x="130.92" y="200" width="793.53" height="794.44"/>
		</defs>
		<clipPath id="SVGID_00000054961986720277171540000009998573971675744647_">
			<use xlink:href="#SVGID_1_"  style="overflow:visible;"/>
		</clipPath>
		<g style="clip-path:url(#SVGID_00000054961986720277171540000009998573971675744647_);">
			<path d="M806.71,876.48H689.17V692.47c0-43.88-0.79-100.36-61.12-100.36s-70.58,47.8-70.58,97.18v187.19H439.93V498.07h112.83
				v51.73h1.57c22.99-39.32,65.79-62.83,111.33-61.12c119.11,0,141.09,78.35,141.09,180.23v207.59L806.71,876.48z M307.37,446.34
				c-37.68,0-68.19-30.5-68.22-68.17c-0.04-37.68,30.5-68.18,68.19-68.22c37.68,0,68.19,30.5,68.22,68.18
				C375.59,415.81,345.05,446.31,307.37,446.34 M366.14,876.48H248.49V498.07h117.65V876.48z M865.28,200.85H189.46
				c-31.97-0.34-58.17,25.23-58.55,57.19v678.54c0.37,31.96,26.58,57.56,58.55,57.23h675.86c32.04,0.41,58.32-25.2,58.77-57.23
				V257.96c-0.49-32-26.77-57.56-58.81-57.15"/>
		</g>
	</g>
	<g>
		<defs>
			<rect id="SVGID_00000160164171461593136780000009066360036584423324_" x="960" y="891.11" width="109.25" height="108.89"/>
		</defs>
		<clipPath id="SVGID_00000097477112225975569370000017946884857344027057_">
			<use xlink:href="#SVGID_00000160164171461593136780000009066360036584423324_"  style="overflow:visible;"/>
		</clipPath>
		<g style="clip-path:url(#SVGID_00000097477112225975569370000017946884857344027057_);">
			<path d="M1014.33,891.24c-29.87,0.3-53.83,24.74-53.57,54.61c0.3,29.87,24.75,53.82,54.62,53.56
				c29.87-0.3,53.83-24.74,53.57-54.61c-0.3-29.45-24.11-53.26-53.57-53.56H1014.33 M1014.33,993.21
				c-26.2,0.45-47.77-20.45-48.22-46.61c-0.45-26.16,20.45-47.77,46.62-48.22c26.21-0.45,47.78,20.45,48.22,46.61v0.79
				c0.56,25.6-19.77,46.83-45.38,47.39h-1.24"/>
		</g>
	</g>
</g>
</svg>
