<?xml version="1.0" encoding="utf-8"?>
<!-- Generator: Adobe Illustrator 30.0.0, SVG Export Plug-In . SVG Version: 9.03 Build 0)  -->
<svg version="1.0" id="Layer_1" xmlns="http://www.w3.org/2000/svg" xmlns:xlink="http://www.w3.org/1999/xlink" x="0px" y="0px"
	 viewBox="0 0 1200 1200" style="enable-background:new 0 0 1200 1200;" xml:space="preserve">
<path d="M728.05,332.98c-4.41-1.97-6.4-7.14-4.41-11.51c1.94-4.41,7.08-6.4,11.51-4.41c22.35,9.97,43.47,22.27,63.06,36.54
	c-32.91-98.44-78.52-40.66-155.54-80.87c19.59,83.26,63.2,130.61,152.17,100.12C774.31,357.07,751.91,343.63,728.05,332.98z
	 M306.04,543.87v-43.14h-19.83v43.14H306.04z M231.58,543.87v-43.14h-19.87v43.14H231.58z M233.52,667.3l4.51,1.78
	c13.83,4.81,32.31,4.21,45.71-1.54c20.07-8.68,33.96-28.22,33.96-50.73v-55.44H200.07v55.44
	C200.07,639.09,213.75,658.58,233.52,667.3z M278.42,707.26v-19.65c-11.75,2.83-27.31,2.83-39.11,0v19.65H278.42z M738.81,510.16
	l-24.13,60h98.78l22.86-60H738.81z M707.63,587.57l-27.07,67.25h100.62l25.63-67.25H707.63z M673.58,672.26l-24.18,60.11h102.31
	l22.86-60.15L673.58,672.26z M630.56,732.37l24.18-60.11H530.74l-24.18,60.11H630.56z M661.78,654.8l27.07-67.25l-124.01,0.06
	l-27.07,67.24L661.78,654.8z M695.84,570.16l24.18-60H596.01l-24.18,60H695.84z M487.76,732.37l24.18-60.11h-98.78l-22.91,60.11
	H487.76z M518.93,654.85L546,587.6H445.39l-25.58,67.24H518.93z M553.03,570.16l24.13-60H474.85L452,570.21L553.03,570.16z
	 M599.34,749.82H546v89.47h53.33V749.82z M476.55,895h192.28c0-11.81,1.35-21.22-7.83-30.4c-4.81-4.87-11.51-7.84-18.78-7.84
	c-46.34,0-92.7,0-139.04,0c-14.62,0-26.61,12-26.61,26.63V895H476.55z M500.49,412.8c-8.13-8.13,4.21-20.49,12.4-12.35l25.88,25.95
	c8.13,8.13-4.21,20.49-12.34,12.35L500.49,412.8z M361.61,249.11c8.13,8.13-4.27,20.54-12.4,12.4l-25.88-25.94
	c-8.13-8.13,4.21-20.54,12.35-12.35L361.61,249.11z M324.08,322.2c11.51,0,11.51,17.51,0,17.51h-36.64c-11.51,0-11.51-17.51,0-17.51
	H324.08z M538.01,339.71c-11.51,0-11.51-17.51,0-17.51h36.63c11.51,0,11.51,17.51,0,17.51H538.01z M512.88,261.51
	c-8.18,8.14-20.53-4.27-12.4-12.4l25.93-25.89c8.13-8.19,20.47,4.21,12.34,12.35L512.88,261.51z M439.77,223.98
	c0,11.51-17.45,11.51-17.45,0v-36.65c0-11.51,17.45-11.51,17.45,0V223.98z M349.21,400.47c8.13-8.13,20.53,4.22,12.4,12.35
	l-25.93,25.94c-8.13,8.14-20.48-4.21-12.35-12.35L349.21,400.47z M422.32,437.99c0-11.51,17.45-11.51,17.45,0v36.65
	c0,11.51-17.45,11.51-17.45,0V437.99z M479.08,282.89c-26.52-26.54-69.54-26.54-96.1,0c-26.53,26.57-26.53,69.63,0,96.15
	c26.56,26.57,69.6,26.57,96.1,0C505.64,352.5,505.64,309.47,479.08,282.89z M801.08,371.9c-3.87-2.87-4.65-8.32-1.78-12.19
	c2.92-3.82,8.38-4.62,12.19-1.73c170.67,128.09,188.55,377.82,37.63,528.82c-125.26,125.31-324.42,137.6-464,28.27
	c-60.82-47.6-105.53-114.95-124.55-192.31c-2.73-11.16,14.23-15.33,16.94-4.16c36.34,147.82,169.37,253.45,323.62,253.45
	c184.05,0,333.24-149.21,333.24-333.33C934.36,533.36,885.08,435.02,801.08,371.9z"/>
</svg>
